<svg version="1.1" viewBox="0.0 0.0 2364.517060367454 612.9028871391076" fill="none" stroke="none" stroke-linecap="square" stroke-miterlimit="10" xmlns:xlink="http://www.w3.org/1999/xlink" xmlns="http://www.w3.org/2000/svg"><clipPath id="p.0"><path d="m0 0l2364.517 0l0 612.9029l-2364.517 0l0 -612.9029z" clip-rule="nonzero"/></clipPath><g clip-path="url(#p.0)"><path fill="#000000" fill-opacity="0.0" d="m0 0l2364.517 0l0 612.9029l-2364.517 0z" fill-rule="evenodd"/><path fill="#025da7" d="m30.84332 352.45627l0 0c-14.497099 -147.52353 197.0296 -289.05423 472.45813 -316.11768l0 0c275.42853 -27.06343 510.45966 70.58877 524.9567 218.11229l0 0c14.497192 147.52353 -197.0296 289.05423 -472.45807 316.11765l0 0c-275.42853 27.063477 -510.4597 -70.588745 -524.9568 -218.11227z" fill-rule="evenodd"/><path fill="#ffffff" d="m78.18214 363.19113l0 0c-14.235298 -144.90553 192.8346 -283.84967 462.50354 -310.34042l0 0c269.66895 -26.49075 499.81885 69.5034 514.0541 214.40894l0 0c14.235352 144.90555 -192.83453 283.84967 -462.50348 310.34045l0 0c-269.66895 26.490723 -499.81882 -69.50342 -514.05414 -214.40897z" fill-rule="evenodd"/><path fill="#025da7" d="m150.38155 408.77426l150.10707 113.165375l19.596893 0l150.10706 -113.165375z" fill-rule="evenodd"/><path fill="#000000" d="m309.15903 451.60678l1.3125 0l2.109375 2.546875l-2.1875 0l-1.234375 -2.546875z" fill-rule="nonzero"/><path fill="#025da7" d="m307.72278 408.89502l2026.3937 0l0 113.03937l-2026.3937 0z" fill-rule="evenodd"/><path fill="#000000" d="m371.71875 207.47392l27.056885 76.945114l-54.11377 0l27.056885 -76.945114zm-16.941132 -35.885468l-65.594666 179.46907l32.046265 0l14.878326 -42.311493l71.22244 0l14.878326 42.311493l32.588715 0l-65.63641 -179.46907z" fill-rule="evenodd"/><path fill="#000000" d="m478.38193 166.456l0 184.60153l30.752716 0l0 -184.60153z" fill-rule="evenodd"/><path fill="#000000" d="m610.9306 245.69612c7.177063 0 13.575195 1.7108154 19.194397 5.1324463c5.6470337 3.421646 10.042236 8.206375 13.185669 14.354202c3.1712646 6.1477966 4.756897 13.241455 4.756897 21.280914c0 8.20636 -1.5856323 15.341705 -4.756897 21.406097c-3.1433716 6.0643616 -7.5386353 10.849091 -13.185669 14.354187c-5.6192017 3.5050964 -12.017334 5.2576294 -19.194397 5.2576294c-7.371704 0 -13.8394165 -1.752533 -19.403015 -5.2576294c-5.5357056 -3.5050964 -9.889282 -8.289825 -13.060486 -14.354187c-3.1434937 -6.064392 -4.715149 -13.199738 -4.715149 -21.406097c0 -8.039459 1.5716553 -15.133087 4.715149 -21.280914c3.1712036 -6.147827 7.5247803 -10.932556 13.060486 -14.354202c5.5635986 -3.4216309 12.031311 -5.1324463 19.403015 -5.1324463zm-67.430664 -79.24013l0 184.60153l27.41455 0l3.3381958 -17.942749c2.7261353 4.089264 6.13385 7.7195435 10.2230835 10.890839c4.1170044 3.1712646 8.901672 5.6470947 14.354065 7.427429c5.4801636 1.808197 11.641785 2.7122803 18.484985 2.7122803c12.128662 0 22.852478 -2.9069824 32.171448 -8.721008c9.31897 -5.8139954 16.621216 -13.839539 21.906616 -24.07663c5.3132324 -10.264923 7.9698486 -21.809448 7.9698486 -34.633636c0 -13.15802 -2.6983643 -24.813843 -8.095032 -34.967484c-5.3688354 -10.1814575 -12.71283 -18.220917 -22.0318 -24.118362c-9.31897 -5.897461 -20.042786 -8.846191 -32.171448 -8.846191c-10.431702 0 -19.152649 2.1002655 -26.16278 6.300827c-7.010071 4.1727295 -12.559753 9.416458 -16.648987 15.731186l0 -74.35803z" fill-rule="evenodd"/><path fill="#000000" d="m769.61896 243.90184c8.873962 0 16.30133 2.6983643 22.282166 8.095093c5.980835 5.3689117 9.138184 12.754654 9.471985 22.15718l-65.81024 0c0.7003784 -4.943268 2.0379639 -9.255066 4.0126953 -12.935455c3.0878296 -5.730545 7.274414 -10.042358 12.559814 -12.935455c5.3132324 -2.9209137 11.141113 -4.381363 17.483582 -4.381363zm0.2503662 -25.119827c-12.990967 0 -24.410217 2.907013 -34.257812 8.721008c-9.819702 5.7861786 -17.427917 13.811722 -22.824585 24.076645c-5.3688965 10.264908 -8.053284 22.22673 -8.053284 35.885452c0 13.15802 2.7261353 24.78601 8.178467 34.884033c5.4801025 10.07019 13.088318 17.887085 22.824585 23.450714c9.764099 5.5636597 21.058228 8.345459 33.882263 8.345459c10.070068 0 19.124817 -1.8359985 27.164185 -5.5079956c8.039429 -3.671997 14.785278 -8.707092 20.237549 -15.105286c5.4801636 -6.425995 9.416382 -13.658722 11.808716 -21.698181l-31.295166 0c-2.2254028 5.1185303 -5.6887207 9.221741 -10.390015 12.30954c-4.673401 3.060028 -10.612488 4.590027 -17.817383 4.590027c-6.4815674 0 -12.337219 -1.4882812 -17.567017 -4.4648438c-5.2019653 -3.004364 -9.305115 -7.3996277 -12.309448 -13.185822c-2.524109 -4.930359 -3.9779663 -10.660919 -4.3616333 -17.19162l96.82849 0c0.33380127 -2.2254639 0.5007324 -4.3535767 0.5007324 -6.3842773c0 -2.0585632 0 -3.9501953 0 -5.6749268c0 -11.794922 -2.5731812 -22.435364 -7.7194824 -31.921371c-5.1185303 -9.485992 -12.379028 -17.038635 -21.781433 -22.657913c-9.402466 -5.6470947 -20.418396 -8.470642 -33.04773 -8.470642z" fill-rule="evenodd"/><path fill="#000000" d="m939.5829 218.78201c-7.510803 0 -14.395752 1.1127319 -20.654785 3.3381805c-6.231201 2.197647 -11.655701 5.313278 -16.273499 9.346909c-4.617798 4.005829 -8.456665 8.832291 -11.516663 14.47937l-2.8374023 -24.118362l-27.41455 0l0 129.22942l30.752686 0l0 -61.798126c0 -7.343994 0.93188477 -13.450104 2.7957153 -18.318268c1.8916016 -4.8681946 4.506531 -8.707092 7.8446655 -11.516754c3.3381348 -2.8374329 7.302185 -4.895981 11.892151 -6.1756287c4.617798 -1.2796326 9.499817 -1.9194489 14.646179 -1.9194489l10.765503 0l0 -32.547287z" fill-rule="evenodd"/><path fill="#000000" d="m979.3139 187.73691l-3.588562 34.0912l-22.0318 0l0 25.912643l22.0318 0l0 60.003845c0 10.765625 1.7942505 19.305817 5.3828125 25.620544c3.588501 6.314728 8.581787 10.849091 14.979919 13.603088c6.4259644 2.7261963 13.992432 4.0892944 22.699463 4.0892944l22.073547 0l0 -26.163025l-15.897949 0c-6.6763306 0 -11.433228 -1.2378845 -14.27063 -3.7137146c-2.8096313 -2.47583 -4.2144165 -6.9545593 -4.2144165 -13.436188l0 -60.003845l35.134094 0l0 -25.912643l-35.134094 0l0 -34.0912z" fill-rule="evenodd"/><path fill="#000000" d="m1134.1523 171.58846l0 179.46907l30.794434 0l0 -179.46907z" fill-rule="evenodd"/><path fill="#000000" d="m1272.5848 218.78201c-10.070068 0 -18.7771 2.2254486 -26.121094 6.676361c-7.343872 4.4230957 -12.990967 10.404007 -16.941162 17.942734l-2.2949219 -21.572998l-27.164185 0l0 129.22942l30.752686 0l0 -68.97522c0 -7.8447266 1.4047852 -14.54892 4.2144775 -20.112549c2.8374023 -5.563629 6.6901855 -9.791992 11.55835 -12.685089c4.868042 -2.9209137 10.376099 -4.381378 16.523804 -4.381378c9.402466 0 16.496094 2.907013 21.280762 8.721008c4.784668 5.8139954 7.177002 14.103821 7.177002 24.869476l0 72.56375l30.752686 0l0 -75.3595c0 -12.490356 -2.0028076 -22.92218 -6.008667 -31.295456c-4.0057373 -8.373276 -9.69458 -14.729736 -17.066284 -19.069382c-7.343872 -4.367447 -16.231812 -6.551178 -26.663452 -6.551178z" fill-rule="evenodd"/><path fill="#000000" d="m1403.1055 218.78201c-10.598633 0 -19.708984 1.7525482 -27.331055 5.2576447c-7.5943604 3.5050812 -13.408325 8.248093 -17.441895 14.229004c-4.0057373 5.980896 -6.008667 12.726822 -6.008667 20.237717c0 6.147827 1.3214111 11.363739 3.9641113 15.647736c2.6704102 4.256195 6.259033 7.7612915 10.765503 10.515289c4.5343018 2.7261963 9.666748 4.9933777 15.397217 6.801544c5.7304688 1.780365 11.669678 3.2686157 17.817383 4.464813c5.813965 1.196167 10.807251 2.434082 14.97998 3.713745c4.2004395 1.2796326 7.413452 3.0321655 9.638916 5.2576294c2.2254639 2.2254639 3.3381348 5.3828125 3.3381348 9.472107c0 2.7539978 -0.77893066 5.3271484 -2.33667 7.7195435c-1.5300293 2.3923645 -3.9223633 4.3118286 -7.177124 5.758362c-3.2268066 1.4465332 -7.413452 2.1697998 -12.559692 2.1697998c-5.2855225 0 -9.847656 -0.8484497 -13.686523 -2.5453491c-3.8388672 -1.7247314 -6.8709717 -4.0753784 -9.096436 -7.0519104c-2.2254639 -3.004364 -3.769287 -6.300812 -4.631714 -9.889374l-30.752686 0c0.8345947 8.540192 3.685913 16.10675 8.554077 22.699646c4.895874 6.592926 11.572266 11.725372 20.028809 15.397369c8.456665 3.671997 18.415527 5.5079956 29.876465 5.5079956c10.932495 0 20.321045 -1.752533 28.16565 -5.2576294c7.8725586 -3.5050964 13.978516 -8.415009 18.318115 -14.729736c4.3674316 -6.34256 6.4677734 -13.617004 6.3007812 -21.823364c0 -9.040924 -2.1419678 -16.03717 -6.4259033 -20.98883c-4.2561035 -4.9794617 -10.056152 -8.74884 -17.400146 -11.308105c-7.343872 -2.5592651 -15.800537 -4.784729 -25.369995 -6.676361c-5.980835 -1.3630981 -11.029785 -2.7679138 -15.146851 -4.214447c-4.0892334 -1.4465637 -7.204834 -3.1990967 -9.346802 -5.2576294c-2.1419678 -2.0585632 -3.2130127 -4.4509277 -3.2130127 -7.1770935c0 -4.089279 1.7525635 -7.3718414 5.2576904 -9.847656c3.505005 -2.5036316 8.595703 -3.7554474 15.271973 -3.7554474c6.4815674 0 11.683594 1.3352661 15.605835 4.0058136c3.9501953 2.6427307 6.3425293 6.3564606 7.177124 11.141205l29.250488 0c-1.5299072 -12.490387 -6.7875977 -22.185013 -15.772705 -29.083939c-8.9852295 -6.9267273 -20.988647 -10.390091 -36.010376 -10.390091z" fill-rule="evenodd"/><path fill="#000000" d="m1487.1981 221.82811l0 75.651566c0 12.462555 1.9611816 22.936096 5.883545 31.420654c3.9223633 8.456726 9.597168 14.785339 17.024536 18.9859c7.4552 4.1727295 16.398682 6.259094 26.830444 6.259094c9.903198 0 18.568481 -2.2254639 25.99585 -6.676361c7.427368 -4.450897 13.116211 -10.431824 17.066284 -17.942719l2.295044 21.53128l27.164185 0l0 -129.22942l-30.752808 0l0 68.975204c0 8.039459 -1.4187012 14.841003 -4.2561035 20.404633c-2.8095703 5.5358276 -6.6484375 9.764191 -11.516602 12.685089c-4.868164 2.893097 -10.376099 4.3396606 -16.523804 4.3396606c-9.569458 0 -16.704712 -2.8513794 -21.406006 -8.554108c-4.701172 -5.7305603 -7.051758 -14.159454 -7.051758 -25.286743l0 -72.563736z" fill-rule="evenodd"/><path fill="#000000" d="m1722.5369 218.78201c-7.5108643 0 -14.395874 1.1127319 -20.654907 3.3381805c-6.231201 2.197647 -11.65564 5.313278 -16.273438 9.346909c-4.617798 4.005829 -8.456665 8.832291 -11.516602 14.47937l-2.8374023 -24.118362l-27.414673 0l0 129.22942l30.752808 0l0 -61.798126c0 -7.343994 0.93188477 -13.450104 2.7956543 -18.318268c1.8916016 -4.8681946 4.5064697 -8.707092 7.8447266 -11.516754c3.3381348 -2.8374329 7.302124 -4.895981 11.89209 -6.1756287c4.617798 -1.2796326 9.499878 -1.9194489 14.646118 -1.9194489l10.765625 0l0 -32.547287z" fill-rule="evenodd"/><path fill="#000000" d="m1828.4049 294.6422l0 0.54244995c-0.5007324 4.590027 -1.5300293 8.943573 -3.0877686 13.060669c-1.5300293 4.089264 -3.713745 7.8029785 -6.5511475 11.141174c-2.8095703 3.3381653 -6.133911 5.9113464 -9.972778 7.7195435c-3.8388672 1.780365 -8.234009 2.6705627 -13.185669 2.6705627c-4.4508057 0 -8.303589 -0.6815796 -11.55835 -2.0446472c-3.2268066 -1.3630981 -5.7026367 -3.3242798 -7.427368 -5.883545c-1.6968994 -2.5870972 -2.545288 -5.6749268 -2.545288 -9.263458c0 -3.588562 0.8483887 -6.704193 2.545288 -9.346924c1.7247314 -2.6427307 4.548218 -4.7290955 8.470581 -6.259094c3.9223633 -1.5578308 8.873901 -2.336731 14.854736 -2.336731zm-25.870728 -75.8602c-10.0979 0 -19.375122 1.8359985 -27.831787 5.508011c-8.456665 3.671997 -15.258179 8.804443 -20.404419 15.397354c-5.1185303 6.565094 -8.192505 14.465454 -9.22168 23.70111l30.251953 0c1.196167 -6.5094604 4.2701416 -11.335922 9.22168 -14.47937c4.97937 -3.17128 10.974121 -4.756912 17.984253 -4.756912c6.147827 0 11.182861 1.1127319 15.105225 3.3381805c3.9222412 2.2254486 6.8292236 5.605362 8.720825 10.13974c1.8917236 4.506531 2.8375244 10.1814575 2.8375244 17.02472l-32.588745 0c-11.96167 0 -22.045776 1.6690979 -30.251953 5.0072937c-8.206299 3.3381653 -14.40979 7.997711 -18.61023 13.978638c-4.1727295 5.980896 -6.259033 13.074554 -6.259033 21.280914c0 7.0101624 1.7108154 13.505707 5.1324463 19.486633c3.4215088 5.9809265 8.637451 10.765625 15.647583 14.354187c7.01001 3.5885315 15.814453 5.3828125 26.413086 5.3828125c5.4522705 0 10.362183 -0.5980835 14.729614 -1.794281c4.3674316 -1.196167 8.261841 -2.865265 11.683472 -5.007263c3.4216309 -2.1419983 6.4538574 -4.659546 9.096436 -7.552643c2.6427002 -2.9208984 4.8125 -6.092163 6.5093994 -9.513824l3.0878906 20.780212l26.16272 0l0 -79.99121c0 -10.932556 -2.2670898 -20.279465 -6.8015137 -28.040741c-4.5343018 -7.7891083 -11.071533 -13.770004 -19.611572 -17.942734c-8.540161 -4.2005615 -18.874512 -6.300827 -31.003174 -6.300827z" fill-rule="evenodd"/><path fill="#000000" d="m1965.2965 218.78201c-10.070068 0 -18.7771 2.2254486 -26.120972 6.676361c-7.343994 4.4230957 -12.990967 10.404007 -16.941162 17.942734l-2.295044 -21.572998l-27.164185 0l0 129.22942l30.752808 0l0 -68.97522c0 -7.8447266 1.4047852 -14.54892 4.2143555 -20.112549c2.8374023 -5.563629 6.6901855 -9.791992 11.55835 -12.685089c4.868164 -2.9209137 10.376099 -4.381378 16.523804 -4.381378c9.402466 0 16.496094 2.907013 21.280762 8.721008c4.784668 5.8139954 7.177002 14.103821 7.177002 24.869476l0 72.56375l30.752808 0l0 -75.3595c0 -12.490356 -2.0029297 -22.92218 -6.008667 -31.295456c-4.0058594 -8.373276 -9.69458 -14.729736 -17.066406 -19.069382c-7.343872 -4.367447 -16.23169 -6.551178 -26.663452 -6.551178z" fill-rule="evenodd"/><path fill="#000000" d="m2109.1282 218.78201c-12.823975 0 -24.229492 2.907013 -34.216064 8.721008c-9.986572 5.7861786 -17.761719 13.770004 -23.32544 23.951462c-5.5634766 10.181442 -8.345215 22.018112 -8.345215 35.509903c0 12.991119 2.7817383 24.577393 8.345215 34.75885c5.5637207 10.153656 13.338867 18.095734 23.32544 23.826263c9.986572 5.7305603 21.308594 8.595825 33.96582 8.595825c16.245605 0 29.834717 -4.3118286 40.76709 -12.935455c10.932373 -8.651459 17.942627 -20.154266 21.030273 -34.508453l-32.29663 0c-1.1960449 4.450897 -3.2128906 8.303711 -6.050293 11.558441c-2.8095703 3.2269287 -6.231201 5.6610107 -10.264893 7.3022766c-4.005615 1.6134644 -8.484375 2.4201965 -13.436035 2.4201965c-4.784668 0 -9.235596 -0.9319153 -13.352539 -2.7957458c-4.0893555 -1.8916321 -7.7194824 -4.5899963 -10.890869 -8.095093c-3.1433105 -3.5050964 -5.5773926 -7.8168945 -7.302002 -12.935455c-1.6970215 -5.1463623 -2.5454102 -11.043823 -2.5454102 -17.692352c0 -8.734924 1.4882812 -16.1763 4.4648438 -22.324097c3.0041504 -6.147827 7.107422 -10.83519 12.309326 -14.062103c5.2297363 -3.2547302 11.001953 -4.8820953 17.31665 -4.8820953c7.343994 0 13.700439 1.8777313 19.069092 5.6331787c5.3967285 3.7554626 8.95752 8.874008 10.682129 15.355637l32.29663 0c-3.0876465 -14.688004 -10.0979 -26.26036 -21.030273 -34.717102c-10.932373 -8.456726 -24.437988 -12.685089 -40.516846 -12.685089z" fill-rule="evenodd"/><path fill="#000000" d="m2260.923 243.90184c8.874023 0 16.30127 2.6983643 22.282227 8.095093c5.980957 5.3689117 9.138184 12.754654 9.471924 22.15718l-65.81006 0c0.7001953 -4.943268 2.0378418 -9.255066 4.0126953 -12.935455c3.0876465 -5.730545 7.274414 -10.042358 12.559814 -12.935455c5.3132324 -2.9209137 11.140869 -4.381363 17.483398 -4.381363zm0.25048828 -25.119827c-12.990967 0 -24.4104 2.907013 -34.257812 8.721008c-9.819824 5.7861786 -17.427979 13.811722 -22.824707 24.076645c-5.3688965 10.264908 -8.053223 22.22673 -8.053223 35.885452c0 13.15802 2.7260742 24.78601 8.178467 34.884033c5.4802246 10.07019 13.088379 17.887085 22.824707 23.450714c9.763916 5.5636597 21.058105 8.345459 33.88208 8.345459c10.070068 0 19.125 -1.8359985 27.164307 -5.5079956c8.039307 -3.671997 14.785156 -8.707092 20.237549 -15.105286c5.4802246 -6.425995 9.416504 -13.658722 11.808594 -21.698181l-31.295166 0c-2.2253418 5.1185303 -5.6887207 9.221741 -10.389893 12.30954c-4.67334 3.060028 -10.612549 4.590027 -17.817383 4.590027c-6.4816895 0 -12.337402 -1.4882812 -17.567139 -4.4648438c-5.2019043 -3.004364 -9.304932 -7.3996277 -12.309326 -13.185822c-2.52417 -4.930359 -3.9780273 -10.660919 -4.3618164 -17.19162l96.82861 0c0.33374023 -2.2254639 0.5007324 -4.3535767 0.5007324 -6.3842773c0 -2.0585632 0 -3.9501953 0 -5.6749268c0 -11.794922 -2.5732422 -22.435364 -7.7194824 -31.921371c-5.118408 -9.485992 -12.378906 -17.038635 -21.781494 -22.657913c-9.402344 -5.6470947 -20.418457 -8.470642 -33.047607 -8.470642z" fill-rule="evenodd"/><path fill="#ffffff" d="m345.58887 437.28122l0 56.161194l32.375244 0l0 -7.5473633l-23.37265 0l0 -48.61383z" fill-rule="evenodd"/><path fill="#ffffff" d="m386.7356 437.28122l0 56.161194l9.0026245 0l0 -56.161194z" fill-rule="evenodd"/><path fill="#ffffff" d="m406.2972 437.28122l0 56.161194l9.002594 0l0 -24.313446l20.005798 0l0 -7.6126404l-20.005798 0l0 -16.452698l24.50711 0l0 -7.7824097z" fill-rule="evenodd"/><path fill="#ffffff" d="m447.51886 437.28122l0 56.161194l33.87567 0l0 -7.7824097l-24.873077 0l0 -16.844421l22.62851 0l0 -7.625702l-22.62851 0l0 -16.126251l24.873077 0l0 -7.7824097z" fill-rule="evenodd"/><path fill="#ffffff" d="m517.9706 456.0582c-1.8460693 0 -3.5214233 0.47009277 -5.025818 1.4102478c-1.4963684 0.931427 -2.6837158 2.2023926 -3.5620422 3.8128357c-0.8701782 1.6017456 -1.3052368 3.4167786 -1.3052368 5.4450684c0 1.9760742 0.4350586 3.7693176 1.3052368 5.3797607c0.8783264 1.6017456 2.0778809 2.8727112 3.5986023 3.8128662c1.5289307 0.931427 3.1920776 1.3971558 4.989258 1.3971558c1.854187 0 3.541687 -0.46572876 5.062439 -1.3971558c1.520813 -0.940155 2.7162476 -2.2111206 3.5864258 -3.8128662c0.8782959 -1.6104431 1.3174438 -3.4036865 1.3174438 -5.3797607c0 -2.0282898 -0.43914795 -3.8433228 -1.3174438 -5.4450684c-0.8701782 -1.6104431 -2.0656128 -2.8814087 -3.5864258 -3.8128357c-1.520752 -0.940155 -3.208252 -1.4102478 -5.062439 -1.4102478z" fill-rule="evenodd"/><path fill="#ffffff" d="m572.3121 445.39008c4.5460815 0 8.128418 0.8182678 10.747009 2.454834c2.62677 1.6278687 4.501343 3.9260254 5.623596 6.89447c1.1304321 2.9684448 1.6956177 6.5375366 1.6956177 10.707306c0 4.117523 -0.56518555 7.6605225 -1.6956177 10.628967c-1.1222534 2.9684448 -2.9968262 5.240509 -5.623596 6.8161316c-2.6186523 1.5756226 -6.200989 2.3634338 -10.747009 2.3634338l-7.48999 0l0 -39.865143zm-16.492554 -8.108856l0 56.161194l16.943909 0c6.0911865 0 11.121094 -1.1490784 15.089722 -3.447235c3.9768066 -2.2981567 6.9248047 -5.545166 8.844055 -9.741058c1.9273682 -4.20459 2.8910522 -9.140381 2.8910522 -14.807434c0 -5.7802124 -0.9636841 -10.7682495 -2.8910522 -14.964111c-1.9192505 -4.1958923 -4.8672485 -7.4429016 -8.844055 -9.741058c-3.968567 -2.3068542 -8.998474 -3.4602966 -15.089722 -3.4602966z" fill-rule="evenodd"/><path fill="#ffffff" d="m608.3584 437.28122l0 56.161194l9.0026245 0l0 -56.161194z" fill-rule="evenodd"/><path fill="#ffffff" d="m644.7053 436.31497c-3.4400635 0 -6.4734497 0.65722656 -9.10022 1.9717102c-2.62677 1.3144531 -4.6639404 3.1469116 -6.111511 5.497284c-1.4475708 2.3503723 -2.1713867 5.157776 -2.1713867 8.422211c0 3.8999023 1.0490723 7.0163574 3.1472778 9.349304c2.0981445 2.3242798 5.2210083 4.2350464 9.368591 5.7323303c1.9517822 0.69641113 3.80188 1.3536682 5.550354 1.9717407c1.7484741 0.6093445 3.2976685 1.3188171 4.647705 2.1283875c1.3499756 0.8008728 2.411255 1.7758484 3.183838 2.9249268c0.772583 1.1490784 1.1588745 2.6071777 1.1588745 4.3743286c0 1.54953 -0.36187744 2.8988037 -1.0856934 4.047882c-0.7237549 1.1490784 -1.7484741 2.0326538 -3.0740356 2.6507263c-1.3256226 0.6093445 -2.887024 0.914032 -4.684326 0.914032c-2.0981445 0 -3.8831787 -0.4265442 -5.3551636 -1.2796631c-1.4719849 -0.8530884 -2.6227417 -2.0152283 -3.4522095 -3.4863892c-0.82141113 -1.4711609 -1.2321167 -3.1425476 -1.2321167 -5.01416l-9.5271 0c0.056884766 3.690979 0.9067993 6.872711 2.5494995 9.545166c1.6508789 2.6724854 3.9482422 4.7312317 6.892212 6.1763c2.9520874 1.4450378 6.3270874 2.167572 10.124878 2.167572c4.049988 0 7.4208374 -0.76168823 10.112732 -2.2850952c2.6999512 -1.5233765 4.7493286 -3.5299072 6.1481323 -6.0195923c1.3987427 -2.4896545 2.0981445 -5.1795654 2.0981445 -8.069672c0 -3.3166504 -0.62615967 -6.0152283 -1.8786011 -8.095764c-1.2442627 -2.0892334 -2.9276733 -3.7867432 -5.050232 -5.092499c-2.1225586 -1.3144836 -4.4850464 -2.4243774 -7.0874023 -3.329712c-1.8948364 -0.69641113 -3.6433105 -1.3362427 -5.2454224 -1.9194946c-1.5939941 -0.59194946 -2.9927979 -1.223053 -4.19635 -1.8933716c-1.1954956 -0.6702881 -2.1063232 -1.4972534 -2.732483 -2.480957c-0.6262207 -0.9923706 -0.93933105 -2.2372131 -0.93933105 -3.734497c0 -1.5494995 0.3375244 -2.8465881 1.0125122 -3.8912048c0.6749878 -1.0446167 1.5980225 -1.8454895 2.769104 -2.4026184c1.0795288 -0.5180054 2.2919922 -0.77700806 3.6373901 -0.77700806c0.12414551 0 0.24945068 0.0021972656 0.37591553 0.0066223145c1.7484741 0 3.232666 0.38735962 4.4525146 1.1621399c1.2280273 0.77474976 2.1673584 1.7671204 2.8179321 2.9771423c0.65057373 1.2013245 1.0002441 2.4940186 1.0490723 3.8781433l9.600342 0c-0.0569458 -3.3166504 -0.8458252 -6.1632385 -2.366516 -8.539734c-1.520813 -2.3764954 -3.5946045 -4.2350464 -6.2213135 -5.575653c-2.6187134 -1.3405762 -5.680542 -2.0108643 -9.185608 -2.0108643z" fill-rule="evenodd"/><path fill="#ffffff" d="m693.3532 448.51086l7.909912 24.0784l-15.819885 0l7.909973 -24.0784zm-4.9526978 -11.229645l-19.17627 56.161194l9.36853 0l4.3496704 -13.240509l20.821472 0l4.3496704 13.240509l9.5271 0l-19.188477 -56.161194z" fill-rule="evenodd"/><path fill="#ffffff" d="m744.0169 445.06363c2.9520264 0 5.1762695 0.70947266 6.6726074 2.1283875c1.4963989 1.4189453 2.2445679 3.355835 2.2445679 5.8106995c0 2.5157776 -0.74816895 4.483124 -2.2445679 5.902069c-1.4963379 1.4189453 -3.696167 2.1283875 -6.5994263 2.1283875l-10.259094 0l0 -15.969543zm0.5977173 23.268799c2.9520874 0 5.277954 0.7878418 6.9776 2.3634644c1.699707 1.5756226 2.5495605 3.7040405 2.5495605 6.3852234c0 2.6724548 -0.8255005 4.757324 -2.4763184 6.2546387c-1.6508789 1.4972534 -3.9483032 2.2459106 -6.892273 2.2459106l-10.9422 0l0 -17.249237zm-19.786255 -31.051208l0 56.161194l21.286682 0c3.7002563 0 6.82312 -0.65289307 9.368591 -1.9586792c2.5454712 -1.3144531 4.480957 -3.13385 5.8065186 -5.4580994c1.3256226 -2.3329773 1.9884033 -4.970642 1.9884033 -7.912964c0 -2.50708 -0.5489502 -4.787842 -1.6468506 -6.8422546c-1.0978394 -2.0631104 -2.5860596 -3.734497 -4.4646606 -5.01416c-1.284668 -0.88482666 -2.682434 -1.4781494 -4.1934814 -1.7799072l0 0c0.98480225 -0.30368042 1.9312744 -0.7027588 2.8394165 -1.1972351c1.8786011 -1.0184937 3.3912354 -2.489685 4.537903 -4.413513c1.1547852 -1.9238281 1.7321777 -4.3046875 1.7321777 -7.1425476c0 -2.8378906 -0.62615967 -5.3362427 -1.8786011 -7.495117c-1.2442627 -2.167572 -3.1065674 -3.8650818 -5.586975 -5.092499c-2.472229 -1.236145 -5.5544434 -1.8542175 -9.246582 -1.8542175z" fill-rule="evenodd"/><path fill="#ffffff" d="m771.89606 437.28122l0 56.161194l9.0026245 0l0 -56.161194z" fill-rule="evenodd"/><path fill="#ffffff" d="m791.4576 437.28122l0 56.161194l32.375244 0l0 -7.5473633l-23.37262 0l0 -48.61383z" fill-rule="evenodd"/><path fill="#ffffff" d="m832.6044 437.28122l0 56.161194l9.002563 0l0 -56.161194z" fill-rule="evenodd"/><path fill="#ffffff" d="m848.94543 437.28122l0 7.7824097l15.4435425 0l0 48.378784l8.917175 0l0 -48.378784l15.431335 0l0 -7.7824097z" fill-rule="evenodd"/><path fill="#ffffff" d="m892.03754 437.28122l17.468506 35.947845l0 20.213348l8.9904175 0l0 -20.213348l17.541626 -35.947845l-10.124878 0l-11.833191 26.382446l-11.844421 -26.382446z" fill-rule="evenodd"/><path fill="#ffffff" d="m969.61035 456.0582c-1.8460693 0 -3.5213623 0.47009277 -5.025879 1.4102478c-1.4963379 0.931427 -2.6836548 2.2023926 -3.5620117 3.8128357c-0.8701782 1.6017456 -1.3052368 3.4167786 -1.3052368 5.4450684c0 1.9760742 0.4350586 3.7693176 1.3052368 5.3797607c0.87835693 1.6017456 2.0778809 2.8727112 3.5986328 3.8128662c1.5289307 0.931427 3.1920166 1.3971558 4.989258 1.3971558c1.854187 0 3.541687 -0.46572876 5.062439 -1.3971558c1.520752 -0.940155 2.7162476 -2.2111206 3.5864258 -3.8128662c0.8782959 -1.6104431 1.3174438 -3.4036865 1.3174438 -5.3797607c0 -2.0282898 -0.43914795 -3.8433228 -1.3174438 -5.4450684c-0.8701782 -1.6104431 -2.0656738 -2.8814087 -3.5864258 -3.8128357c-1.520752 -0.940155 -3.208252 -1.4102478 -5.062439 -1.4102478z" fill-rule="evenodd"/><path fill="#ffffff" d="m1030.7709 436.31497c-5.1966553 0 -9.681641 1.231781 -13.455078 3.6953125c-3.7734985 2.463562 -6.6726685 5.8759766 -8.697693 10.237244c-2.0168457 4.3525696 -3.0252686 9.418945 -3.0252686 15.199158c0 5.719269 1.0084229 10.759552 3.0252686 15.120819c2.0250244 4.361267 4.9241943 7.76062 8.697693 10.198059c3.7734375 2.4287415 8.258423 3.643097 13.455078 3.643097c6.2457275 0 11.352905 -1.6191406 15.321533 -4.8574524c3.9768066 -3.2383118 6.465332 -7.690979 7.465576 -13.358032l-9.893066 0c-0.6994629 2.9945679 -2.126709 5.3362427 -4.2817383 7.025055c-2.1469727 1.6800842 -5.0421143 2.520111 -8.685425 2.520111c-3.3017578 0 -6.1400146 -0.8139038 -8.514709 -2.4417725c-2.3665771 -1.6365662 -4.1882324 -3.96521 -5.465027 -6.9858704c-1.2767944 -3.020691 -1.9151611 -6.642029 -1.9151611 -10.864014c0 -4.2306824 0.6383667 -7.8825073 1.9151611 -10.955414c1.2767944 -3.0729065 3.0984497 -5.423279 5.465027 -7.0511475c2.3746948 -1.6365662 5.2128296 -2.4548645 8.514709 -2.4548645c3.6433105 0 6.538452 0.9096985 8.685425 2.729065c2.1550293 1.8193665 3.5822754 4.3046875 4.2817383 7.455963l9.893066 0c-1.0490723 -5.9891357 -3.5498047 -10.628967 -7.5021973 -13.919525c-3.9442139 -3.2905273 -9.039185 -4.935791 -15.284912 -4.935791z" fill-rule="evenodd"/><path fill="#ffffff" d="m1080.5342 445.3117c3.399292 0 5.871582 0.8444214 7.416748 2.5332031c1.5533447 1.6800842 2.329956 3.9085999 2.329956 6.685547c0 2.83786 -0.78881836 5.1273193 -2.3665771 6.868347c-1.569458 1.7323303 -4.029541 2.5984802 -7.380127 2.5984802l-9.209961 0l0 -18.685577zm-18.212646 -8.030487l0 56.161194l9.002686 0l0 -22.302551l8.446289 0l9.91272 22.302551l10.27124 0l-10.958984 -23.510895l0 0c0.88708496 -0.31170654 1.7141113 -0.6836548 2.480835 -1.1159363c2.7487793 -1.54953 4.7738037 -3.6082764 6.074951 -6.1763c1.3012695 -2.5680237 1.9517822 -5.349304 1.9517822 -8.343872c0 -3.2121887 -0.6627197 -6.0892334 -1.9884033 -8.631134c-1.3255615 -2.5419006 -3.3504639 -4.5745544 -6.074829 -6.0979614c-2.7243652 -1.5233765 -6.1604004 -2.2850952 -10.307861 -2.2850952z" fill-rule="evenodd"/><path fill="#ffffff" d="m1108.7897 437.28122l0 56.161194l9.002563 0l0 -56.161194z" fill-rule="evenodd"/><path fill="#ffffff" d="m1125.1307 437.28122l0 7.7824097l15.443481 0l0 48.378784l8.917236 0l0 -48.378784l15.431274 0l0 -7.7824097z" fill-rule="evenodd"/><path fill="#ffffff" d="m1172.346 437.28122l0 56.161194l9.002686 0l0 -56.161194z" fill-rule="evenodd"/><path fill="#ffffff" d="m1215.2192 436.31497c-5.1966553 0 -9.681641 1.231781 -13.455078 3.6953125c-3.7734375 2.463562 -6.6727295 5.8759766 -8.697754 10.237244c-2.0167236 4.3525696 -3.0251465 9.418945 -3.0251465 15.199158c0 5.719269 1.0084229 10.759552 3.0251465 15.120819c2.0250244 4.361267 4.9243164 7.76062 8.697754 10.198059c3.7734375 2.4287415 8.258423 3.643097 13.455078 3.643097c6.2457275 0 11.352905 -1.6191406 15.321533 -4.8574524c3.9766846 -3.2383118 6.46521 -7.690979 7.465576 -13.358032l-9.893188 0c-0.6993408 2.9945679 -2.126587 5.3362427 -4.281616 7.025055c-2.1469727 1.6800842 -5.0421143 2.520111 -8.685547 2.520111c-3.3017578 0 -6.1400146 -0.8139038 -8.514648 -2.4417725c-2.366455 -1.6365662 -4.1882324 -3.96521 -5.464966 -6.9858704c-1.2768555 -3.020691 -1.9151611 -6.642029 -1.9151611 -10.864014c0 -4.2306824 0.63830566 -7.8825073 1.9151611 -10.955414c1.2767334 -3.0729065 3.0985107 -5.423279 5.464966 -7.0511475c2.3747559 -1.6365662 5.2128906 -2.4548645 8.514648 -2.4548645c3.6434326 0 6.538574 0.9096985 8.685547 2.729065c2.1550293 1.8193665 3.5822754 4.3046875 4.281616 7.455963l9.893188 0c-1.0490723 -5.9891357 -3.5498047 -10.628967 -7.5021973 -13.919525c-3.9442139 -3.2905273 -9.039185 -4.935791 -15.284912 -4.935791z" fill-rule="evenodd"/><path fill="#ffffff" d="m1266.7094 448.51086l7.910034 24.0784l-15.819946 0l7.909912 -24.0784zm-4.9526367 -11.229645l-19.17627 56.161194l9.36853 0l4.3496094 -13.240509l20.821533 0l4.3496094 13.240509l9.527222 0l-19.188477 -56.161194z" fill-rule="evenodd"/><path fill="#ffffff" d="m1298.1846 437.28122l0 56.161194l32.375244 0l0 -7.5473633l-23.372559 0l0 -48.61383z" fill-rule="evenodd"/><path fill="#ffffff" d="m1357.6188 437.28122l0 56.161194l9.002563 0l0 -56.161194z" fill-rule="evenodd"/><path fill="#ffffff" d="m1377.1803 437.28122l0 56.161194l32.375244 0l0 -7.5473633l-23.372559 0l0 -48.61383z" fill-rule="evenodd"/><path fill="#ffffff" d="m1418.3271 437.28122l0 56.161194l32.375122 0l0 -7.5473633l-23.372559 0l0 -48.61383z" fill-rule="evenodd"/><path fill="#ffffff" d="m1459.4739 437.28122l0 56.161194l9.002563 0l0 -40.518066l25.25122 40.518066l8.990356 0l0 -56.161194l-8.990356 0l0 40.596405l-25.25122 -40.596405z" fill-rule="evenodd"/><path fill="#ffffff" d="m1513.2869 437.28122l0 56.161194l33.875732 0l0 -7.7824097l-24.873169 0l0 -16.844421l22.62854 0l0 -7.625702l-22.62854 0l0 -16.126251l24.873169 0l0 -7.7824097z" fill-rule="evenodd"/><path fill="#ffffff" d="m1573.3925 436.31497c-3.4400635 0 -6.4733887 0.65722656 -9.10022 1.9717102c-2.626831 1.3144531 -4.6639404 3.1469116 -6.1115723 5.497284c-1.4475098 2.3503723 -2.1712646 5.157776 -2.1712646 8.422211c0 3.8999023 1.0490723 7.0163574 3.1472168 9.349304c2.0981445 2.3242798 5.2210693 4.2350464 9.36853 5.7323303c1.9517822 0.69641113 3.80188 1.3536682 5.550415 1.9717407c1.7485352 0.6093445 3.2977295 1.3188171 4.647705 2.1283875c1.3499756 0.8008728 2.411255 1.7758484 3.183838 2.9249268c0.772583 1.1490784 1.1588135 2.6071777 1.1588135 4.3743286c0 1.54953 -0.3618164 2.8988037 -1.0855713 4.047882c-0.72387695 1.1490784 -1.7485352 2.0326538 -3.0740967 2.6507263c-1.3255615 0.6093445 -2.887085 0.914032 -4.684326 0.914032c-2.0981445 0 -3.8831787 -0.4265442 -5.3552246 -1.2796631c-1.4719238 -0.8530884 -2.6226807 -2.0152283 -3.4521484 -3.4863892c-0.82141113 -1.4711609 -1.2320557 -3.1425476 -1.2320557 -5.01416l-9.527222 0c0.056884766 3.690979 0.9067383 6.872711 2.5495605 9.545166c1.6508789 2.6724854 3.9482422 4.7312317 6.892212 6.1763c2.9520264 1.4450378 6.3270264 2.167572 10.124878 2.167572c4.0499268 0 7.4208984 -0.76168823 10.112671 -2.2850952c2.7000732 -1.5233765 4.7493896 -3.5299072 6.1481934 -6.0195923c1.3986816 -2.4896545 2.0981445 -5.1795654 2.0981445 -8.069672c0 -3.3166504 -0.6262207 -6.0152283 -1.8786621 -8.095764c-1.2442627 -2.0892334 -2.9276123 -3.7867432 -5.050171 -5.092499c-2.1225586 -1.3144836 -4.4849854 -2.4243774 -7.0874023 -3.329712c-1.8948975 -0.69641113 -3.6434326 -1.3362427 -5.2454834 -1.9194946c-1.5938721 -0.59194946 -2.9926758 -1.223053 -4.196289 -1.8933716c-1.1954346 -0.6702881 -2.1063232 -1.4972534 -2.732544 -2.480957c-0.6262207 -0.9923706 -0.93933105 -2.2372131 -0.93933105 -3.734497c0 -1.5494995 0.3375244 -2.8465881 1.0125732 -3.8912048c0.67492676 -1.0446167 1.5980225 -1.8454895 2.769043 -2.4026184c1.0795898 -0.5180054 2.2919922 -0.77700806 3.6374512 -0.77700806c0.12414551 0 0.24951172 0.0021972656 0.37597656 0.0066223145c1.7484131 0 3.232544 0.38735962 4.4525146 1.1621399c1.2279053 0.77474976 2.1672363 1.7671204 2.817871 2.9771423c0.65063477 1.2013245 1.0002441 2.4940186 1.0490723 3.8781433l9.600342 0c-0.056884766 -3.3166504 -0.8458252 -6.1632385 -2.3665771 -8.539734c-1.520752 -2.3764954 -3.5944824 -4.2350464 -6.2213135 -5.575653c-2.6186523 -1.3405762 -5.68042 -2.0108643 -9.185547 -2.0108643z" fill-rule="evenodd"/><path fill="#ffffff" d="m1618.1367 436.31497c-3.4400635 0 -6.4733887 0.65722656 -9.10022 1.9717102c-2.626709 1.3144531 -4.6639404 3.1469116 -6.11145 5.497284c-1.4476318 2.3503723 -2.1713867 5.157776 -2.1713867 8.422211c0 3.8999023 1.0490723 7.0163574 3.1472168 9.349304c2.0981445 2.3242798 5.2210693 4.2350464 9.36853 5.7323303c1.9519043 0.69641113 3.802002 1.3536682 5.550415 1.9717407c1.7485352 0.6093445 3.2977295 1.3188171 4.647705 2.1283875c1.3499756 0.8008728 2.411255 1.7758484 3.183838 2.9249268c0.772583 1.1490784 1.1589355 2.6071777 1.1589355 4.3743286c0 1.54953 -0.36193848 2.8988037 -1.0856934 4.047882c-0.72387695 1.1490784 -1.7485352 2.0326538 -3.0740967 2.6507263c-1.3255615 0.6093445 -2.886963 0.914032 -4.684326 0.914032c-2.0981445 0 -3.8831787 -0.4265442 -5.3551025 -1.2796631c-1.4720459 -0.8530884 -2.6228027 -2.0152283 -3.4522705 -3.4863892c-0.82141113 -1.4711609 -1.2320557 -3.1425476 -1.2320557 -5.01416l-9.527222 0c0.057006836 3.690979 0.90686035 6.872711 2.5495605 9.545166c1.6508789 2.6724854 3.9483643 4.7312317 6.892212 6.1763c2.9521484 1.4450378 6.3270264 2.167572 10.124878 2.167572c4.050049 0 7.4208984 -0.76168823 10.112793 -2.2850952c2.6999512 -1.5233765 4.7492676 -3.5299072 6.1480713 -6.0195923c1.3988037 -2.4896545 2.0981445 -5.1795654 2.0981445 -8.069672c0 -3.3166504 -0.6262207 -6.0152283 -1.87854 -8.095764c-1.2442627 -2.0892334 -2.9277344 -3.7867432 -5.050293 -5.092499c-2.1225586 -1.3144836 -4.4849854 -2.4243774 -7.0874023 -3.329712c-1.8948975 -0.69641113 -3.6433105 -1.3362427 -5.2453613 -1.9194946c-1.5939941 -0.59194946 -2.9927979 -1.223053 -4.196411 -1.8933716c-1.1954346 -0.6702881 -2.1063232 -1.4972534 -2.732544 -2.480957c-0.62609863 -0.9923706 -0.939209 -2.2372131 -0.939209 -3.734497c0 -1.5494995 0.33740234 -2.8465881 1.0124512 -3.8912048c0.6750488 -1.0446167 1.5980225 -1.8454895 2.769165 -2.4026184c1.0794678 -0.5180054 2.2919922 -0.77700806 3.637329 -0.77700806c0.12414551 0 0.24951172 0.0021972656 0.37597656 0.0066223145c1.7485352 0 3.232666 0.38735962 4.4525146 1.1621399c1.2280273 0.77474976 2.1672363 1.7671204 2.817871 2.9771423c0.65063477 1.2013245 1.0002441 2.4940186 1.0490723 3.8781433l9.600342 0c-0.056884766 -3.3166504 -0.8457031 -6.1632385 -2.3665771 -8.539734c-1.520752 -2.3764954 -3.5944824 -4.2350464 -6.2213135 -5.575653c-2.6185303 -1.3405762 -5.68042 -2.0108643 -9.185547 -2.0108643z" fill-rule="evenodd"/><path fill="#ffffff" d="m1673.2272 456.0582c-1.8461914 0 -3.5213623 0.47009277 -5.025879 1.4102478c-1.4963379 0.931427 -2.6837158 2.2023926 -3.5620117 3.8128357c-0.87023926 1.6017456 -1.3052979 3.4167786 -1.3052979 5.4450684c0 1.9760742 0.4350586 3.7693176 1.3052979 5.3797607c0.8782959 1.6017456 2.0778809 2.8727112 3.5986328 3.8128662c1.5288086 0.931427 3.1918945 1.3971558 4.989258 1.3971558c1.854126 0 3.541626 -0.46572876 5.062378 -1.3971558c1.520752 -0.940155 2.7161865 -2.2111206 3.5864258 -3.8128662c0.8782959 -1.6104431 1.3173828 -3.4036865 1.3173828 -5.3797607c0 -2.0282898 -0.4390869 -3.8433228 -1.3173828 -5.4450684c-0.87023926 -1.6104431 -2.0656738 -2.8814087 -3.5864258 -3.8128357c-1.520752 -0.940155 -3.208252 -1.4102478 -5.062378 -1.4102478z" fill-rule="evenodd"/><path fill="#ffffff" d="m1711.076 437.28122l0 56.161194l32.375244 0l0 -7.5473633l-23.37268 0l0 -48.61383z" fill-rule="evenodd"/><path fill="#ffffff" d="m1752.2228 437.28122l0 56.161194l9.002563 0l0 -56.161194z" fill-rule="evenodd"/><path fill="#ffffff" d="m1767.7344 437.28122l19.261719 56.161194l10.942139 0l19.347168 -56.161194l-9.527222 0l-15.284912 46.28955l-15.065308 -46.28955z" fill-rule="evenodd"/><path fill="#ffffff" d="m1823.8735 437.28122l0 56.161194l9.002686 0l0 -56.161194z" fill-rule="evenodd"/><path fill="#ffffff" d="m1843.4352 437.28122l0 56.161194l9.002563 0l0 -40.518066l25.25122 40.518066l8.9904785 0l0 -56.161194l-8.9904785 0l0 40.596405l-25.25122 -40.596405z" fill-rule="evenodd"/><path fill="#ffffff" d="m1921.5358 436.31497c-5.3999023 0 -10.059814 1.244812 -13.979614 3.734497c-3.9199219 2.4896545 -6.928833 5.9412537 -9.0271 10.354736c-2.0981445 4.413513 -3.1472168 9.479919 -3.1472168 15.199188c0 5.780182 1.0206299 10.824829 3.0618896 15.13385c2.0493164 4.300354 4.9364014 7.656189 8.661011 10.067505c3.7246094 2.4026184 8.059204 3.6039124 13.003784 3.6039124c2.6999512 0 5.0625 -0.33514404 7.0874023 -1.0054321c2.0250244 -0.6702881 3.7856445 -1.6583252 5.2819824 -2.9641113c1.49646 -1.3144531 2.8220215 -2.8813782 3.9768066 -4.700775l0.7441406 7.704071l8.246338 0l0 -30.724792l-22.640747 0l0 7.2992554l13.564941 0c-0.4473877 4.7094727 -1.9193115 8.5354 -4.4160156 11.477722c-2.496582 2.9336243 -6.192871 4.4004517 -11.088501 4.4004517c-3.3017578 0 -6.1766357 -0.7878113 -8.624512 -2.3634338c-2.447876 -1.5756226 -4.3345947 -3.8868408 -5.6601562 -6.933655c-1.3255615 -3.0467834 -1.9884033 -6.685547 -1.9884033 -10.916229c0 -4.221985 0.6628418 -7.869446 1.9884033 -10.942352c1.3255615 -3.0816345 3.2489014 -5.436371 5.7700195 -7.064209c2.5291748 -1.6365662 5.5666504 -2.4548645 9.112305 -2.4548645c3.4970703 0 6.343384 0.77911377 8.5390625 2.3373413c2.1958008 1.5494995 3.671875 3.712738 4.4281006 6.489685l10.112793 0c-1.1955566 -5.5625916 -3.8060303 -9.906464 -7.831543 -13.031586c-4.025635 -3.13385 -9.083984 -4.700775 -15.175171 -4.700775z" fill-rule="evenodd"/><path fill="#ffffff" d="m1992.5845 445.06363c2.9520264 0 5.1762695 0.70947266 6.6726074 2.1283875c1.49646 1.4189453 2.244629 3.355835 2.244629 5.8106995c0 2.5157776 -0.74816895 4.483124 -2.244629 5.902069c-1.4963379 1.4189453 -3.696167 2.1283875 -6.599365 2.1283875l-10.259155 0l0 -15.969543zm0.5977783 23.268799c2.9520264 0 5.277954 0.7878418 6.977539 2.3634644c1.699707 1.5756226 2.5495605 3.7040405 2.5495605 6.3852234c0 2.6724548 -0.82543945 4.757324 -2.4763184 6.2546387c-1.6508789 1.4972534 -3.9482422 2.2459106 -6.892212 2.2459106l-10.942261 0l0 -17.249237zm-19.786255 -31.051208l0 56.161194l21.286621 0c3.7003174 0 6.82312 -0.65289307 9.368652 -1.9586792c2.5454102 -1.3144531 4.480957 -3.13385 5.8065186 -5.4580994c1.3255615 -2.3329773 1.9884033 -4.970642 1.9884033 -7.912964c0 -2.50708 -0.5489502 -4.787842 -1.6468506 -6.8422546c-1.0979004 -2.0631104 -2.5861816 -3.734497 -4.4647217 -5.01416c-1.284668 -0.88482666 -2.682373 -1.4781494 -4.1934814 -1.7799072l0 0c0.9848633 -0.30368042 1.9312744 -0.7027588 2.8394775 -1.1972351c1.87854 -1.0184937 3.3912354 -2.489685 4.537842 -4.413513c1.1547852 -1.9238281 1.7321777 -4.3046875 1.7321777 -7.1425476c0 -2.8378906 -0.62609863 -5.3362427 -1.87854 -7.495117c-1.2442627 -2.167572 -3.1065674 -3.8650818 -5.587036 -5.092499c-2.47229 -1.236145 -5.5544434 -1.8542175 -9.246582 -1.8542175z" fill-rule="evenodd"/><path fill="#ffffff" d="m2020.4637 437.28122l0 56.161194l33.87561 0l0 -7.7824097l-24.873047 0l0 -16.844421l22.628662 0l0 -7.625702l-22.628662 0l0 -16.126251l24.873047 0l0 -7.7824097z" fill-rule="evenodd"/><path fill="#ffffff" d="m2063.784 437.28122l0 56.161194l9.002686 0l0 -40.518066l25.25122 40.518066l8.9904785 0l0 -56.161194l-8.9904785 0l0 40.596405l-25.25122 -40.596405z" fill-rule="evenodd"/><path fill="#ffffff" d="m2117.5972 437.28122l0 56.161194l33.87549 0l0 -7.7824097l-24.873047 0l0 -16.844421l22.628662 0l0 -7.625702l-22.628662 0l0 -16.126251l24.873047 0l0 -7.7824097z" fill-rule="evenodd"/><path fill="#ffffff" d="m2160.9175 437.28122l0 56.161194l9.002441 0l0 -24.313446l20.00586 0l0 -7.6126404l-20.00586 0l0 -16.452698l24.50708 0l0 -7.7824097z" fill-rule="evenodd"/><path fill="#ffffff" d="m2202.1392 437.28122l0 56.161194l9.002686 0l0 -56.161194z" fill-rule="evenodd"/><path fill="#ffffff" d="m2218.4802 437.28122l0 7.7824097l15.443359 0l0 48.378784l8.917236 0l0 -48.378784l15.4313965 0l0 -7.7824097z" fill-rule="evenodd"/><path fill="#ffffff" d="m2281.7314 436.31497c-3.4401855 0 -6.4733887 0.65722656 -9.100342 1.9717102c-2.626709 1.3144531 -4.6638184 3.1469116 -6.1115723 5.497284c-1.4475098 2.3503723 -2.1711426 5.157776 -2.1711426 8.422211c0 3.8999023 1.0490723 7.0163574 3.1472168 9.349304c2.0981445 2.3242798 5.2209473 4.2350464 9.368408 5.7323303c1.9519043 0.69641113 3.802002 1.3536682 5.550537 1.9717407c1.7485352 0.6093445 3.2976074 1.3188171 4.647705 2.1283875c1.3498535 0.8008728 2.4111328 1.7758484 3.183838 2.9249268c0.77246094 1.1490784 1.1589355 2.6071777 1.1589355 4.3743286c0 1.54953 -0.36206055 2.8988037 -1.0856934 4.047882c-0.72387695 1.1490784 -1.7485352 2.0326538 -3.0742188 2.6507263c-1.3254395 0.6093445 -2.886963 0.914032 -4.684326 0.914032c-2.0981445 0 -3.8833008 -0.4265442 -5.3552246 -1.2796631c-1.4719238 -0.8530884 -2.6225586 -2.0152283 -3.4521484 -3.4863892c-0.82128906 -1.4711609 -1.2319336 -3.1425476 -1.2319336 -5.01416l-9.527344 0c0.056884766 3.690979 0.9067383 6.872711 2.5495605 9.545166c1.6508789 2.6724854 3.9484863 4.7312317 6.892334 6.1763c2.9521484 1.4450378 6.3269043 2.167572 10.124756 2.167572c4.050049 0 7.4208984 -0.76168823 10.112793 -2.2850952c2.6999512 -1.5233765 4.7492676 -3.5299072 6.1481934 -6.0195923c1.3986816 -2.4896545 2.0981445 -5.1795654 2.0981445 -8.069672c0 -3.3166504 -0.6262207 -6.0152283 -1.8786621 -8.095764c-1.2441406 -2.0892334 -2.9277344 -3.7867432 -5.050293 -5.092499c-2.1225586 -1.3144836 -4.4848633 -2.4243774 -7.0874023 -3.329712c-1.8947754 -0.69641113 -3.6433105 -1.3362427 -5.2453613 -1.9194946c-1.5939941 -0.59194946 -2.9926758 -1.223053 -4.196289 -1.8933716c-1.1955566 -0.6702881 -2.1064453 -1.4972534 -2.732666 -2.480957c-0.6262207 -0.9923706 -0.939209 -2.2372131 -0.939209 -3.734497c0 -1.5494995 0.33740234 -2.8465881 1.0124512 -3.8912048c0.6750488 -1.0446167 1.5981445 -1.8454895 2.769043 -2.4026184c1.0795898 -0.5180054 2.2919922 -0.77700806 3.6374512 -0.77700806c0.12426758 0 0.24951172 0.0021972656 0.37597656 0.0066223145c1.7485352 0 3.232666 0.38735962 4.4526367 1.1621399c1.2277832 0.77474976 2.1672363 1.7671204 2.817871 2.9771423c0.65063477 1.2013245 1.0002441 2.4940186 1.0490723 3.8781433l9.600342 0c-0.056884766 -3.3166504 -0.8457031 -6.1632385 -2.3666992 -8.539734c-1.520752 -2.3764954 -3.5944824 -4.2350464 -6.2211914 -5.575653c-2.6186523 -1.3405762 -5.68042 -2.0108643 -9.185547 -2.0108643z" fill-rule="evenodd"/></g></svg>