<svg version="1.1" viewBox="0.0 0.0 2458.824146981627 638.2362204724409" fill="none" stroke="none" stroke-linecap="square" stroke-miterlimit="10" xmlns:xlink="http://www.w3.org/1999/xlink" xmlns="http://www.w3.org/2000/svg"><clipPath id="p.0"><path d="m0 0l2458.8242 0l0 638.2362l-2458.8242 0l0 -638.2362z" clip-rule="nonzero"/></clipPath><g clip-path="url(#p.0)"><path fill="#000000" fill-opacity="0.0" d="m0 0l2458.8242 0l0 638.2362l-2458.8242 0z" fill-rule="evenodd"/><path fill="#025da7" d="m139.10205 362.4946l0 0c-13.668709 -139.09383 185.77109 -272.53726 445.46124 -298.05426l0 0c259.6902 -25.51699 481.29132 66.55524 494.96002 205.64908l0 0c13.668701 139.09381 -185.77106 272.5373 -445.46124 298.05426l0 0c-259.69016 25.516968 -481.29132 -66.55524 -494.96002 -205.64908z" fill-rule="evenodd"/><path fill="#ffffff" d="m183.73587 372.61606l0 0c-13.421875 -136.62543 181.81577 -267.63013 436.07547 -292.60715l0 0c254.2597 -24.977028 471.25848 65.5319 484.68036 202.15732l0 0c13.421875 136.62546 -181.81573 267.63016 -436.07544 292.60715l0 0c-254.2597 24.97705 -471.2585 -65.53186 -484.6804 -202.15732z" fill-rule="evenodd"/><path fill="#025da7" d="m251.80708 425.00262l141.61162 87.87402l18.320068 0l141.61163 -87.87402z" fill-rule="evenodd"/><path fill="#000000" d="m401.4507 459.13876l1.3125 0l2.109375 2.546875l-2.1875 0l-1.234375 -2.546875z" fill-rule="nonzero"/><path fill="#025da7" d="m400.15616 425.0971l1944.3151 0l0 87.77954l-1944.3151 0z" fill-rule="evenodd"/><path fill="#000000" d="m460.49435 225.7946l25.510468 72.54762l-51.020905 0l25.510437 -72.54762zm-15.972839 -33.83458l-61.845642 169.21222l30.21466 0l14.027954 -39.89334l67.15173 0l14.027985 39.89334l30.726074 0l-61.88495 -169.21222z" fill-rule="evenodd"/><path fill="#000000" d="m561.0612 187.1209l0 174.05135l28.995056 0l0 -174.05135z" fill-rule="evenodd"/><path fill="#000000" d="m686.0341 261.83237c6.7668457 0 12.799316 1.6130371 18.097351 4.8391113c5.32428 3.2261047 9.468262 7.7373657 12.432068 13.533844c2.9899902 5.7964478 4.4849854 12.48468 4.4849854 20.064667c0 7.7373657 -1.4949951 14.464935 -4.4849854 20.18274c-2.963745 5.7177734 -7.107788 10.229034 -12.432068 13.533813c-5.2980347 3.304779 -11.330505 4.9571533 -18.097351 4.9571533c-6.9503784 0 -13.048401 -1.6523743 -18.294006 -4.9571533c-5.2193604 -3.304779 -9.324097 -7.81604 -12.314087 -13.533813c-2.963745 -5.717804 -4.4456177 -12.445374 -4.4456177 -20.18274c0 -7.5799866 1.4818726 -14.268188 4.4456177 -20.064667c2.9899902 -5.7964783 7.0947266 -10.307739 12.314087 -13.533844c5.2456055 -3.2260742 11.343628 -4.8391113 18.294006 -4.8391113zm-63.57666 -74.71147l0 174.05135l25.847656 0l3.1474 -16.917297c2.5703735 3.8555603 5.783264 7.2783813 9.638794 10.268402c3.8817139 2.9900208 8.392883 5.3243713 13.53363 7.00296c5.166931 1.7048645 10.97644 2.5572815 17.428528 2.5572815c11.435425 0 21.546326 -2.7408752 30.332703 -8.222595c8.786377 -5.48172 15.671204 -13.0486145 20.654541 -22.700653c5.0095215 -9.678253 7.5143433 -20.563019 7.5143433 -32.654297c0 -12.406006 -2.5441284 -23.39566 -7.6323853 -32.969025c-5.0620117 -9.599579 -11.986206 -17.179565 -20.772583 -22.739975c-8.786377 -5.5604095 -18.897278 -8.340622 -30.332703 -8.340622c-9.835449 0 -18.057983 1.9802399 -24.66742 5.9407196c-6.609436 3.9342651 -11.841919 8.878311 -15.697449 14.832138l0 -70.10838z" fill-rule="evenodd"/><path fill="#000000" d="m835.6527 260.14062c8.36676 0 15.369629 2.544159 21.008606 7.6324463c5.639038 5.0620728 8.615906 12.025696 8.930664 20.8909l-62.04889 0c0.66033936 -4.6607666 1.9214478 -8.726166 3.7833252 -12.1961975c2.911316 -5.4030457 6.8586426 -9.468414 11.84198 -12.196167c5.0095215 -2.7539978 10.5043335 -4.1309814 16.484314 -4.1309814zm0.23602295 -23.684204c-12.248474 0 -23.015076 2.7408752 -32.299805 8.222595c-9.258423 5.45549 -16.431824 13.022369 -21.52008 22.700623c-5.0620117 9.678284 -7.5929565 20.956482 -7.5929565 33.834595c0 12.406006 2.5703125 23.369446 7.7109985 32.89035c5.166931 9.494659 12.340271 16.864838 21.52008 22.110504c9.206055 5.2456665 19.854614 7.8684998 31.94574 7.8684998c9.494507 0 18.031738 -1.7310791 25.611633 -5.193207c7.579895 -3.4621582 13.940186 -8.209473 19.080872 -14.242004c5.166931 -6.0587463 8.878174 -12.878143 11.133789 -20.45813l-29.50653 0c-2.0982056 4.8260193 -5.3635864 8.694702 -9.796143 11.606049c-4.406311 2.8851318 -10.005981 4.3276978 -16.799011 4.3276978c-6.111145 0 -11.632141 -1.4032288 -16.562988 -4.209656c-4.904663 -2.832672 -8.773315 -6.9767456 -11.605896 -12.432251c-2.3798828 -4.64859 -3.7506714 -10.051636 -4.1123657 -16.209106l91.29425 0c0.3147583 -2.098297 0.47210693 -4.1047363 0.47210693 -6.019409c0 -1.940918 0 -3.7244568 0 -5.350586c0 -11.120819 -2.4260864 -21.153168 -7.2782593 -30.097046c-4.825989 -8.943848 -11.671509 -16.06485 -20.53656 -21.362976c-8.865051 -5.324356 -19.251343 -7.9865417 -31.158875 -7.9865417z" fill-rule="evenodd"/><path fill="#000000" d="m995.9024 236.45642c-7.081543 0 -13.572998 1.0491486 -19.474304 3.1474c-5.875061 2.072052 -10.989502 5.0096283 -15.343384 8.812729c-4.353882 3.776886 -7.9733276 8.327499 -10.858398 13.651871l-2.675232 -22.73999l-25.847717 0l0 121.84381l28.995056 0l0 -58.266296c0 -6.924286 0.8786011 -12.6813965 2.6359253 -17.271362c1.7834473 -4.589966 4.2489014 -8.209473 7.3963013 -10.858551c3.1473389 -2.6752625 6.8848267 -4.6161804 11.212463 -5.822693c4.353882 -1.2064819 8.956848 -1.8097534 13.809021 -1.8097534l10.150269 0l0 -30.687164z" fill-rule="evenodd"/><path fill="#000000" d="m1033.3625 207.1856l-3.3834229 32.142838l-20.772583 0l0 24.431702l20.772583 0l0 56.574554c0 10.150391 1.6917725 18.202484 5.0751953 24.156311c3.3833008 5.9538574 8.091309 10.229065 14.123779 12.825653c6.0585938 2.570404 13.192627 3.8555908 21.401978 3.8555908l20.812012 0l0 -24.667786l-14.98938 0c-6.2946777 0 -10.779663 -1.1671448 -13.454956 -3.5014648c-2.6490479 -2.3343506 -3.9735107 -6.5570984 -3.9735107 -12.668304l0 -56.574554l33.125977 0l0 -24.431702l-33.125977 0l0 -32.142838z" fill-rule="evenodd"/><path fill="#000000" d="m1179.3513 191.96002l0 169.21222l29.034424 0l0 -169.21222z" fill-rule="evenodd"/><path fill="#000000" d="m1309.8717 236.45642c-9.494507 0 -17.70398 2.0982666 -24.628174 6.294815c-6.9241943 4.1703033 -12.248413 9.809387 -15.972778 16.917282l-2.1638184 -20.340088l-25.611694 0l0 121.84381l28.995117 0l0 -65.0332c0 -7.396393 1.3244629 -13.717438 3.9735107 -18.963104c2.675293 -5.2456665 6.3078613 -9.232361 10.897705 -11.960114c4.589966 -2.7539978 9.783081 -4.1309814 15.579468 -4.1309814c8.865112 0 15.553223 2.7408752 20.064453 8.222595c4.5112305 5.48172 6.7668457 13.29776 6.7668457 23.44815l0 68.41666l28.994995 0l0 -71.05261c0 -11.77652 -1.8884277 -21.612152 -5.665283 -29.506897c-3.7767334 -7.8947296 -9.140381 -13.887909 -16.09082 -17.979523c-6.9241943 -4.117859 -15.304077 -6.1767883 -25.139526 -6.1767883z" fill-rule="evenodd"/><path fill="#000000" d="m1432.9325 236.45642c-9.99292 0 -18.58252 1.6523895 -25.769043 4.9571686c-7.1602783 3.3047638 -12.641846 7.776703 -16.444946 13.415802c-3.7768555 5.639084 -5.665283 11.999466 -5.665283 19.081131c0 5.7964478 1.2458496 10.714264 3.7375488 14.7534485c2.5178223 4.012909 5.901245 7.317688 10.150269 9.914307c4.2751465 2.5703735 9.114136 4.708008 14.517212 6.412842c5.402954 1.6785889 11.002563 3.0818176 16.79895 4.2096252c5.4816895 1.1278381 10.189575 2.294983 14.123779 3.5014954c3.9604492 1.2065125 6.989868 2.8588867 9.088013 4.9571533c2.0982666 2.0982666 3.1473389 5.0751953 3.1473389 8.930756c0 2.5966187 -0.734375 5.0227356 -2.203125 7.2783813c-1.4425049 2.2556458 -3.69812 4.065399 -6.7668457 5.4292603c-3.0423584 1.3638611 -6.989746 2.045807 -11.841919 2.045807c-4.9832764 0 -9.284668 -0.7999573 -12.904175 -2.3999023c-3.6195068 -1.6261597 -6.4782715 -3.8424683 -8.576538 -6.6488647c-2.0982666 -2.832672 -3.553955 -5.940735 -4.3669434 -9.324188l-28.995117 0c0.78686523 8.0520935 3.4752197 15.186218 8.065186 21.402344c4.616089 6.216095 10.910767 11.055237 18.884155 14.517395c7.9732666 3.4621277 17.362915 5.193207 28.168823 5.193207c10.307617 0 19.159546 -1.6524048 26.555908 -4.9571533c7.4224854 -3.304779 13.179565 -7.934082 17.271118 -13.887939c4.117798 -5.9800415 6.0980225 -12.838776 5.940674 -20.576141c0 -8.5242 -2.0195312 -15.120605 -6.058716 -19.789276c-4.0128174 -4.6948853 -9.481445 -8.24884 -16.40564 -10.661835c-6.9241943 -2.4129944 -14.897461 -4.511261 -23.919922 -6.2948c-5.639038 -1.2851868 -10.399414 -2.6097107 -14.281128 -3.9736023c-3.8554688 -1.3638611 -6.793091 -3.0162354 -8.812622 -4.9571533c-2.0195312 -1.9408875 -3.0292969 -4.196533 -3.0292969 -6.7669067c0 -3.8555603 1.6523438 -6.9505005 4.9570312 -9.284821c3.3048096 -2.3605652 8.104492 -3.5408325 14.39917 -3.5408325c6.111206 0 11.015747 1.2589417 14.713989 3.776886c3.7243652 2.4916687 5.9799805 5.993164 6.7667236 10.504456l27.578857 0c-1.442627 -11.77655 -6.399658 -20.917114 -14.871338 -27.421753c-8.47168 -6.5308685 -19.789062 -9.796295 -33.95215 -9.796295z" fill-rule="evenodd"/><path fill="#000000" d="m1512.2189 239.32843l0 71.328c0 11.750305 1.8491211 21.625275 5.547241 29.624908c3.69812 7.973419 9.048706 13.940369 16.051514 17.900848c7.0290527 3.9342651 15.461426 5.9013977 25.296875 5.9013977c9.33728 0 17.507202 -2.098297 24.510132 -6.2948c7.0029297 -4.196533 12.366455 -9.835632 16.09082 -16.917297l2.1638184 20.30075l25.611694 0l0 -121.84381l-28.995117 0l0 65.0332c0 7.5799866 -1.3375244 13.992798 -4.0128174 19.238495c-2.6490479 5.2194214 -6.2685547 9.206146 -10.858398 11.960114c-4.5898438 2.7277527 -9.783081 4.0916443 -15.579468 4.0916443c-9.022461 0 -15.749878 -2.6884155 -20.182373 -8.065247c-4.432617 -5.4030457 -6.6488037 -13.35022 -6.6488037 -23.841553l0 -68.41666z" fill-rule="evenodd"/><path fill="#000000" d="m1734.1068 236.45642c-7.081543 0 -13.572998 1.0491486 -19.474243 3.1474c-5.875122 2.072052 -10.989502 5.0096283 -15.343384 8.812729c-4.353882 3.776886 -7.9733887 8.327499 -10.858398 13.651871l-2.675293 -22.73999l-25.847656 0l0 121.84381l28.994995 0l0 -58.266296c0 -6.924286 0.8786621 -12.6813965 2.6359863 -17.271362c1.7834473 -4.589966 4.2489014 -8.209473 7.39624 -10.858551c3.1473389 -2.6752625 6.8848877 -4.6161804 11.212524 -5.822693c4.353882 -1.2064819 8.956787 -1.8097534 13.80896 -1.8097534l10.150269 0l0 -30.687164z" fill-rule="evenodd"/><path fill="#000000" d="m1833.9241 307.98114l0 0.5114441c-0.47216797 4.3276978 -1.442627 8.432434 -2.911377 12.314209c-1.4425049 3.8555603 -3.5013428 7.3570557 -6.1766357 10.504456c-2.6490479 3.1474 -5.783325 5.573517 -9.40271 7.2783813c-3.6195068 1.6785889 -7.76355 2.5179138 -12.432129 2.5179138c-4.196533 0 -7.8291016 -0.64260864 -10.897705 -1.9277954c-3.0424805 -1.2851562 -5.376709 -3.1342773 -7.0029297 -5.5472717c-1.5998535 -2.4392395 -2.3997803 -5.350586 -2.3997803 -8.734039c0 -3.383484 0.79992676 -6.321045 2.3997803 -8.812744c1.6260986 -2.4916992 4.28833 -4.458832 7.98645 -5.901367c3.69812 -1.468811 8.366699 -2.203186 14.005737 -2.203186zm-24.39209 -71.52472c-9.520752 0 -18.267822 1.7310791 -26.241089 5.193222c-7.9733887 3.462143 -14.386108 8.30127 -19.238281 14.51738c-4.8259277 6.189911 -7.724121 13.638733 -8.69458 22.346558l28.52295 0c1.1278076 -6.1374207 4.026001 -10.688049 8.69458 -13.651855c4.694824 -2.9900208 10.346924 -4.4850464 16.95642 -4.4850464c5.7963867 0 10.543701 1.0491333 14.241821 3.1474c3.69812 2.0982666 6.438965 5.2850037 8.222534 9.560242c1.7834473 4.248993 2.675171 9.599579 2.675171 16.051758l-30.726074 0c-11.278076 0 -20.785767 1.5737 -28.52295 4.7211c-7.7373047 3.1474 -13.586182 7.5406494 -17.546509 13.179749c-3.934204 5.639099 -5.901367 12.327332 -5.901367 20.064667c0 6.609558 1.6130371 12.733856 4.8391113 18.372986c3.2260742 5.639099 8.143799 10.15036 14.753296 13.533813c6.609375 3.3834534 14.910522 5.0751953 24.903442 5.0751953c5.140747 0 9.769897 -0.5639343 13.887695 -1.691742c4.117798 -1.1278076 7.789795 -2.7015076 11.015747 -4.7211c3.2260742 -2.0195923 6.084961 -4.3932495 8.57666 -7.121002c2.4915771 -2.7539673 4.5373535 -5.743988 6.137329 -8.970093l2.911255 19.59259l24.66748 0l0 -75.41962c0 -10.30777 -2.1375732 -19.120483 -6.4127197 -26.438202c-4.2752686 -7.343933 -10.438843 -12.983017 -18.490845 -16.917282c-8.052002 -3.9604797 -17.795654 -5.9407196 -29.23108 -5.9407196z" fill-rule="evenodd"/><path fill="#000000" d="m1962.9917 236.45642c-9.494507 0 -17.70398 2.0982666 -24.628174 6.294815c-6.9241943 4.1703033 -12.248413 9.809387 -15.972778 16.917282l-2.1638184 -20.340088l-25.611694 0l0 121.84381l28.995117 0l0 -65.0332c0 -7.396393 1.3244629 -13.717438 3.9735107 -18.963104c2.675293 -5.2456665 6.3078613 -9.232361 10.897705 -11.960114c4.589966 -2.7539978 9.783081 -4.1309814 15.579468 -4.1309814c8.865112 0 15.553223 2.7408752 20.064453 8.222595c4.5112305 5.48172 6.7668457 13.29776 6.7668457 23.44815l0 68.41666l28.994995 0l0 -71.05261c0 -11.77652 -1.8884277 -21.612152 -5.665283 -29.506897c-3.7767334 -7.8947296 -9.140381 -13.887909 -16.09082 -17.979523c-6.9241943 -4.117859 -15.304077 -6.1767883 -25.139526 -6.1767883z" fill-rule="evenodd"/><path fill="#000000" d="m2098.6028 236.45642c-12.091309 0 -22.844727 2.7408752 -32.260498 8.222595c-9.416016 5.45549 -16.746582 12.983032 -21.99231 22.582611c-5.2456055 9.599579 -7.868408 20.759735 -7.868408 33.4805c0 12.248627 2.6228027 23.17273 7.868408 32.77231c5.2457275 9.573364 12.576538 17.061554 21.99231 22.4646c9.4157715 5.4030457 20.090576 8.104553 32.024414 8.104553c15.317139 0 28.129395 -4.065399 38.43701 -12.1961975c10.307617 -8.157013 16.917236 -19.002441 19.82837 -32.536255l-30.450684 0c-1.1276855 4.196533 -3.0292969 7.8291626 -5.70459 10.897858c-2.6489258 3.042511 -5.875 5.337494 -9.678223 6.8849487c-3.7766113 1.5212402 -7.9995117 2.2818604 -12.667969 2.2818604c-4.5112305 0 -8.707764 -0.8786316 -12.5896 -2.6359253c-3.8554688 -1.7835388 -7.278076 -4.3276978 -10.268066 -7.6324463c-2.9638672 -3.304779 -5.258789 -7.370178 -6.88501 -12.1961975c-1.5998535 -4.8522644 -2.3999023 -10.412659 -2.3999023 -16.681244c0 -8.235687 1.4033203 -15.25177 4.209717 -21.048248c2.8325195 -5.7964478 6.701172 -10.215912 11.605957 -13.258423c4.930908 -3.0687256 10.373047 -4.6030884 16.326904 -4.6030884c6.9240723 0 12.917236 1.7704163 17.979248 5.311249c5.088379 3.5408325 8.445557 8.366852 10.071533 14.478058l30.450684 0c-2.9111328 -13.848572 -9.520752 -24.759552 -19.82837 -32.732986c-10.307617 -7.973419 -23.04126 -11.960129 -38.200928 -11.960129z" fill-rule="evenodd"/><path fill="#000000" d="m2241.722 260.14062c8.366699 0 15.369385 2.544159 21.008545 7.6324463c5.63916 5.0620728 8.615967 12.025696 8.930664 20.8909l-62.04883 0c0.66015625 -4.6607666 1.9213867 -8.726166 3.7832031 -12.1961975c2.911377 -5.4030457 6.8586426 -9.468414 11.842041 -12.196167c5.0095215 -2.7539978 10.504395 -4.1309814 16.484375 -4.1309814zm0.23608398 -23.684204c-12.248535 0 -23.015137 2.7408752 -32.299805 8.222595c-9.258545 5.45549 -16.431885 13.022369 -21.520264 22.700623c-5.0620117 9.678284 -7.5930176 20.956482 -7.5930176 33.834595c0 12.406006 2.5705566 23.369446 7.7111816 32.89035c5.166992 9.494659 12.340332 16.864838 21.52002 22.110504c9.206055 5.2456665 19.854492 7.8684998 31.9458 7.8684998c9.494385 0 18.031738 -1.7310791 25.611572 -5.193207c7.579834 -3.4621582 13.940186 -8.209473 19.08081 -14.242004c5.166992 -6.0587463 8.878174 -12.878143 11.133789 -20.45813l-29.506348 0c-2.0983887 4.8260193 -5.3637695 8.694702 -9.796143 11.606049c-4.406494 2.8851318 -10.0061035 4.3276978 -16.799072 4.3276978c-6.111328 0 -11.632324 -1.4032288 -16.562988 -4.209656c-4.904785 -2.832672 -8.7734375 -6.9767456 -11.605957 -12.432251c-2.3798828 -4.64859 -3.7507324 -10.051636 -4.1123047 -16.209106l91.29419 0c0.31469727 -2.098297 0.47216797 -4.1047363 0.47216797 -6.019409c0 -1.940918 0 -3.7244568 0 -5.350586c0 -11.120819 -2.4260254 -21.153168 -7.2783203 -30.097046c-4.8259277 -8.943848 -11.671387 -16.06485 -20.536621 -21.362976c-8.86499 -5.324356 -19.25122 -7.9865417 -31.158691 -7.9865417z" fill-rule="evenodd"/><path fill="#ffffff" d="m461.04327 443.2351l0 51.496674l30.19989 0l0 -6.9205017l-21.802185 0l0 -44.57617z" fill-rule="evenodd"/><path fill="#ffffff" d="m499.4253 443.2351l0 51.496674l8.397705 0l0 -51.496674z" fill-rule="evenodd"/><path fill="#ffffff" d="m517.6725 443.2351l0 51.496674l8.397705 0l0 -22.294067l18.66156 0l0 -6.980377l-18.66156 0l0 -15.086212l22.860413 0l0 -7.136017z" fill-rule="evenodd"/><path fill="#ffffff" d="m556.1244 443.2351l0 51.496674l31.599487 0l0 -7.136017l-23.201782 0l0 -15.445435l21.108032 0l0 -6.99234l-21.108032 0l0 -14.786865l23.201782 0l0 -7.136017z" fill-rule="evenodd"/><path fill="#ffffff" d="m621.8423 460.45255c-1.7220459 0 -3.28479 0.43103027 -4.6881104 1.2930908c-1.395813 0.85409546 -2.503418 2.0194702 -3.3226929 3.4961853c-0.81170654 1.4687195 -1.2175293 3.132965 -1.2175293 4.992798c0 1.8119507 0.40582275 3.4562683 1.2175293 4.932953c0.8192749 1.4687195 1.9382324 2.6341248 3.3568115 3.4961853c1.4262085 0.85409546 2.977539 1.2811279 4.6539917 1.2811279c1.7296143 0 3.303772 -0.42703247 4.72229 -1.2811279c1.4186401 -0.86206055 2.5337524 -2.0274658 3.345459 -3.4961853c0.8192749 -1.4766846 1.2289429 -3.1210022 1.2289429 -4.932953c0 -1.8598328 -0.40966797 -3.5240784 -1.2289429 -4.992798c-0.81170654 -1.4766846 -1.9268188 -2.6420898 -3.345459 -3.4961853c-1.4185181 -0.86206055 -2.9926758 -1.2930908 -4.72229 -1.2930908z" fill-rule="evenodd"/><path fill="#ffffff" d="m672.5325 450.67044c4.2406006 0 7.5822754 0.7503357 10.024902 2.2509766c2.4502563 1.4926453 4.1988525 3.5999146 5.2457275 6.3218384c1.0544434 2.7218933 1.581665 5.994568 1.581665 9.817993c0 3.7755432 -0.5272217 7.024292 -1.581665 9.746185c-1.046875 2.7218933 -2.7954712 4.805237 -5.2457275 6.25c-2.442688 1.4447632 -5.784363 2.1671448 -10.024902 2.1671448l-6.9866943 0l0 -36.55414zm-15.384399 -7.4353333l0 51.496674l15.80542 0c5.681885 0 10.37384 -1.0536499 14.075867 -3.1609192c3.7095337 -2.1072998 6.4594727 -5.0846252 8.249756 -8.932007c1.7978516 -3.8553772 2.6968384 -8.381226 2.6968384 -13.577606c0 -5.30011 -0.8989868 -9.873871 -2.6968384 -13.721252c-1.7902832 -3.8473816 -4.540222 -6.8247375 -8.249756 -8.932007c-3.7019653 -2.115265 -8.393921 -3.172882 -14.075867 -3.172882z" fill-rule="evenodd"/><path fill="#ffffff" d="m706.15674 443.2351l0 51.496674l8.397705 0l0 -51.496674z" fill-rule="evenodd"/><path fill="#ffffff" d="m740.06146 442.3491c-3.2089233 0 -6.038513 0.6026306 -8.48877 1.8079529c-2.4502563 1.2052917 -4.350525 2.8855286 -5.7008667 5.0407104c-1.3503418 2.1551514 -2.0254517 4.7294006 -2.0254517 7.722687c0 3.5759888 0.97857666 6.4335938 2.935791 8.572815c1.9571533 2.1312256 4.870178 3.8833008 8.739075 5.2562256c1.8206177 0.6385803 3.5464478 1.2412109 5.177429 1.8079529c1.6309814 0.55874634 3.0761108 1.2092896 4.335388 1.9516296c1.2592773 0.7343445 2.2492676 1.6283569 2.9699097 2.6819763c0.7207031 1.0536499 1.0810547 2.3906555 1.0810547 4.011017c0 1.4208374 -0.33764648 2.6580505 -1.0127563 3.7117004c-0.6751709 1.0536499 -1.6309814 1.8638306 -2.8674927 2.4305725c-1.2365723 0.55874634 -2.6930542 0.83810425 -4.369568 0.83810425c-1.9571533 0 -3.6223145 -0.39111328 -4.9953613 -1.1733704c-1.3731079 -0.7822571 -2.4464722 -1.8478699 -3.2202759 -3.1968384c-0.7661743 -1.3489685 -1.149292 -2.8815308 -1.149292 -4.5977173l-8.886963 0c0.053100586 3.38443 0.8458252 6.3019104 2.3781738 8.752411c1.539978 2.4505005 3.6829834 4.3382874 6.429138 5.66333c2.7537231 1.3250122 5.9019165 1.9875488 9.44458 1.9875488c3.777832 0 6.922241 -0.6984558 9.433228 -2.0953064c2.5184937 -1.3968811 4.430176 -3.2367554 5.7349854 -5.5196533c1.3048096 -2.282898 1.9572144 -4.749359 1.9572144 -7.399414c0 -3.0411987 -0.58410645 -5.5156555 -1.7523804 -7.423401c-1.1606445 -1.9157104 -2.730957 -3.4721985 -4.7109375 -4.669525c-1.9799194 -1.2052917 -4.183655 -2.2230225 -6.611145 -3.0531616c-1.7675781 -0.6385803 -3.3984985 -1.2252502 -4.8930054 -1.7600708c-1.4868774 -0.54278564 -2.791687 -1.1214905 -3.9143677 -1.7361145c-1.1151733 -0.614624 -1.9647827 -1.3729248 -2.5488892 -2.2749023c-0.58410645 -0.9099426 -0.8762207 -2.0513916 -0.8762207 -3.4243164c0 -1.4208374 0.31488037 -2.6101685 0.944458 -3.5680237c0.6296387 -0.9578552 1.4906616 -1.6921997 2.5830688 -2.203064c1.006958 -0.4749756 2.1380005 -0.7124939 3.3930054 -0.7124939c0.11578369 0 0.23272705 0.0020446777 0.350708 0.006072998c1.6309204 0 3.0153809 0.3552246 4.1533203 1.0656128c1.1455078 0.7104187 2.0216675 1.6203918 2.62854 2.729889c0.60687256 1.101532 0.93304443 2.2868958 0.97857666 3.5560303l8.955261 0c-0.053100586 -3.0411682 -0.7889404 -5.6513367 -2.2075195 -7.8304443c-1.4185791 -2.1791382 -3.3530273 -3.8833008 -5.8032837 -5.112549c-2.442688 -1.229248 -5.298828 -1.8438721 -8.568359 -1.8438721z" fill-rule="evenodd"/><path fill="#ffffff" d="m785.44055 453.53204l7.378479 22.078552l-14.756958 0l7.378479 -22.078552zm-4.619873 -10.296936l-17.887817 51.496674l8.739075 0l4.057373 -12.140808l19.422485 0l4.057373 12.140808l8.886963 0l-17.89917 -51.496674z" fill-rule="evenodd"/><path fill="#ffffff" d="m832.7001 450.37112c2.7537231 0 4.82843 0.6505432 6.224304 1.9516296c1.395813 1.3010864 2.09375 3.0770874 2.09375 5.328064c0 2.3068237 -0.697937 4.110779 -2.09375 5.411865c-1.395874 1.3010864 -3.447876 1.9516296 -6.156067 1.9516296l-9.569702 0l0 -14.643188zm0.55755615 21.336212c2.7537231 0 4.92334 0.7223816 6.508789 2.1671448c1.5854492 1.4447632 2.3782349 3.3963928 2.3782349 5.854889c0 2.4505005 -0.77001953 4.362213 -2.3099976 5.7351685c-1.539917 1.3729248 -3.6829224 2.0593872 -6.429138 2.0593872l-10.206909 0l0 -15.816589zm-18.456726 -28.472229l0 51.496674l19.856323 0c3.4515991 0 6.364624 -0.59866333 8.739075 -1.79599c2.3744507 -1.2052917 4.1799316 -2.8735657 5.416443 -5.0047913c1.2365112 -2.1391907 1.8547363 -4.5578003 1.8547363 -7.2557373c0 -2.2988586 -0.5120239 -4.390167 -1.5361328 -6.2739563c-1.0241089 -1.8917542 -2.4123535 -3.424347 -4.164734 -4.5977173c-1.1983032 -0.81134033 -2.5021973 -1.3553772 -3.9116821 -1.6320801l0 0c0.91864014 -0.27844238 1.8015137 -0.64437866 2.6486206 -1.0978088c1.7523804 -0.9338989 3.16333 -2.2828674 4.232971 -4.046936c1.0772095 -1.7640381 1.6158447 -3.9471436 1.6158447 -6.5493164c0 -2.6021729 -0.58410645 -4.893036 -1.7523804 -6.8726196c-1.1606445 -1.9875488 -2.8978882 -3.5440674 -5.211609 -4.669525c-2.3061523 -1.1334839 -5.1812744 -1.7001953 -8.625244 -1.7001953z" fill-rule="evenodd"/><path fill="#ffffff" d="m858.706 443.2351l0 51.496674l8.397705 0l0 -51.496674z" fill-rule="evenodd"/><path fill="#ffffff" d="m876.9531 443.2351l0 51.496674l30.19989 0l0 -6.9205017l-21.802185 0l0 -44.57617z" fill-rule="evenodd"/><path fill="#ffffff" d="m915.33514 443.2351l0 51.496674l8.397705 0l0 -51.496674z" fill-rule="evenodd"/><path fill="#ffffff" d="m930.57825 443.2351l0 7.136017l14.405823 0l0 44.360657l8.318054 0l0 -44.360657l14.394409 0l0 -7.136017z" fill-rule="evenodd"/><path fill="#ffffff" d="m970.7749 443.2351l16.294739 32.96216l0 18.534515l8.3862915 0l0 -18.534515l16.363037 -32.96216l-9.44458 0l-11.038086 24.191223l-11.048584 -24.191223z" fill-rule="evenodd"/><path fill="#ffffff" d="m1043.1354 460.45255c-1.7220459 0 -3.28479 0.43103027 -4.6881104 1.2930908c-1.395874 0.85409546 -2.503418 2.0194702 -3.3226318 3.4961853c-0.8117676 1.4687195 -1.2176514 3.132965 -1.2176514 4.992798c0 1.8119507 0.4058838 3.4562683 1.2176514 4.932953c0.81921387 1.4687195 1.9382324 2.6341248 3.3566895 3.4961853c1.4262695 0.85409546 2.977539 1.2811279 4.6540527 1.2811279c1.7296143 0 3.303711 -0.42703247 4.72229 -1.2811279c1.4185791 -0.86206055 2.5336914 -2.0274658 3.345459 -3.4961853c0.81921387 -1.4766846 1.2288818 -3.1210022 1.2288818 -4.932953c0 -1.8598328 -0.40966797 -3.5240784 -1.2288818 -4.992798c-0.8117676 -1.4766846 -1.9268799 -2.6420898 -3.345459 -3.4961853c-1.4185791 -0.86206055 -2.9926758 -1.2930908 -4.72229 -1.2930908z" fill-rule="evenodd"/><path fill="#ffffff" d="m1100.1864 442.3491c-4.847412 0 -9.031128 1.1294556 -12.551025 3.3883972c-3.5198975 2.2589417 -6.224243 5.3879395 -8.113159 9.386993c-1.8813477 3.9910583 -2.8220215 8.636658 -2.8220215 13.936768c0 5.2442627 0.9406738 9.865906 2.8220215 13.86496c1.888916 3.999054 4.5932617 7.1160583 8.113159 9.351074c3.5198975 2.2269897 7.7036133 3.3405151 12.551025 3.3405151c5.82605 0 10.590088 -1.4846802 14.292114 -4.4540405c3.7094727 -2.9693604 6.0307617 -7.0522156 6.963867 -12.248566l-9.228394 0c-0.65234375 2.7458496 -1.9836426 4.893036 -3.9940186 6.4415894c-2.0026855 1.5405273 -4.703247 2.3108215 -8.101807 2.3108215c-3.079956 0 -5.727417 -0.7463379 -7.942505 -2.2389832c-2.2075195 -1.5006409 -3.9068604 -3.6358643 -5.0979004 -6.40567c-1.190918 -2.769806 -1.786499 -6.0903625 -1.786499 -9.9617c0 -3.879303 0.59558105 -7.2278137 1.786499 -10.045502c1.19104 -2.817688 2.8903809 -4.9728394 5.0979004 -6.465515c2.215088 -1.5006409 4.862549 -2.250946 7.942505 -2.250946c3.3985596 0 6.099121 0.83413696 8.101807 2.5023804c2.010376 1.6682739 3.3416748 3.947174 3.9940186 6.8367004l9.228394 0c-0.9785156 -5.491699 -3.3112793 -9.746185 -6.998047 -12.763428c-3.6791992 -3.0172424 -8.431885 -4.5258484 -14.257935 -4.5258484z" fill-rule="evenodd"/><path fill="#ffffff" d="m1146.606 450.5986c3.1710205 0 5.477173 0.7742615 6.918457 2.322815c1.4489746 1.5405273 2.173462 3.5839539 2.173462 6.130249c0 2.6021729 -0.73583984 4.701477 -2.2075195 6.2979126c-1.4641113 1.58844 -3.7589111 2.38266 -6.8843994 2.38266l-8.591064 0l0 -17.133636zm-16.98877 -7.363495l0 51.496674l8.397705 0l0 -20.450226l7.878784 0l9.246582 20.450226l9.581177 0l-10.222656 -21.558197l0 0c0.82751465 -0.28579712 1.598877 -0.6268616 2.314209 -1.0232544c2.564087 -1.4208069 4.453003 -3.3085938 5.666748 -5.6632996c1.2137451 -2.3547363 1.8206787 -4.9050293 1.8206787 -7.650879c0 -2.945404 -0.61828613 -5.583496 -1.8548584 -7.914276c-1.2364502 -2.33078 -3.1253662 -4.1946106 -5.666748 -5.591461c-2.5412598 -1.3968811 -5.746338 -2.0953064 -9.615234 -2.0953064z" fill-rule="evenodd"/><path fill="#ffffff" d="m1172.9629 443.2351l0 51.496674l8.397705 0l0 -51.496674z" fill-rule="evenodd"/><path fill="#ffffff" d="m1188.206 443.2351l0 7.136017l14.405762 0l0 44.360657l8.318115 0l0 -44.360657l14.394409 0l0 -7.136017z" fill-rule="evenodd"/><path fill="#ffffff" d="m1232.2488 443.2351l0 51.496674l8.397705 0l0 -51.496674z" fill-rule="evenodd"/><path fill="#ffffff" d="m1272.2413 442.3491c-4.847534 0 -9.03125 1.1294556 -12.551147 3.3883972c-3.5198975 2.2589417 -6.224243 5.3879395 -8.113159 9.386993c-1.8813477 3.9910583 -2.8220215 8.636658 -2.8220215 13.936768c0 5.2442627 0.9406738 9.865906 2.8220215 13.86496c1.888916 3.999054 4.5932617 7.1160583 8.113159 9.351074c3.5198975 2.2269897 7.7036133 3.3405151 12.551147 3.3405151c5.82605 0 10.589966 -1.4846802 14.291992 -4.4540405c3.7095947 -2.9693604 6.030884 -7.0522156 6.9639893 -12.248566l-9.228394 0c-0.6524658 2.7458496 -1.9837646 4.893036 -3.9940186 6.4415894c-2.0028076 1.5405273 -4.703369 2.3108215 -8.101929 2.3108215c-3.079834 0 -5.727417 -0.7463379 -7.942505 -2.2389832c-2.2075195 -1.5006409 -3.9067383 -3.6358643 -5.0977783 -6.40567c-1.19104 -2.769806 -1.786499 -6.0903625 -1.786499 -9.9617c0 -3.879303 0.595459 -7.2278137 1.786499 -10.045502c1.19104 -2.817688 2.8902588 -4.9728394 5.0977783 -6.465515c2.215088 -1.5006409 4.862671 -2.250946 7.942505 -2.250946c3.3985596 0 6.099121 0.83413696 8.101929 2.5023804c2.010254 1.6682739 3.3415527 3.947174 3.9940186 6.8367004l9.228394 0c-0.9786377 -5.491699 -3.3114014 -9.746185 -6.998169 -12.763428c-3.6791992 -3.0172424 -8.431763 -4.5258484 -14.2578125 -4.5258484z" fill-rule="evenodd"/><path fill="#ffffff" d="m1320.2717 453.53204l7.378418 22.078552l-14.756958 0l7.37854 -22.078552zm-4.619873 -10.296936l-17.887817 51.496674l8.739014 0l4.057373 -12.140808l19.422485 0l4.057373 12.140808l8.886963 0l-17.89917 -51.496674z" fill-rule="evenodd"/><path fill="#ffffff" d="m1349.6321 443.2351l0 51.496674l30.19983 0l0 -6.9205017l-21.802124 0l0 -44.57617z" fill-rule="evenodd"/><path fill="#ffffff" d="m1405.0726 443.2351l0 51.496674l8.397705 0l0 -51.496674z" fill-rule="evenodd"/><path fill="#ffffff" d="m1423.3198 443.2351l0 51.496674l30.199951 0l0 -6.9205017l-21.802246 0l0 -44.57617z" fill-rule="evenodd"/><path fill="#ffffff" d="m1461.7019 443.2351l0 51.496674l30.19983 0l0 -6.9205017l-21.802124 0l0 -44.57617z" fill-rule="evenodd"/><path fill="#ffffff" d="m1500.0839 443.2351l0 51.496674l8.397705 0l0 -37.1528l23.554565 37.1528l8.386353 0l0 -51.496674l-8.386353 0l0 37.22464l-23.554565 -37.22464z" fill-rule="evenodd"/><path fill="#ffffff" d="m1550.2811 443.2351l0 51.496674l31.599487 0l0 -7.136017l-23.201782 0l0 -15.445435l21.108032 0l0 -6.99234l-21.108032 0l0 -14.786865l23.201782 0l0 -7.136017z" fill-rule="evenodd"/><path fill="#ffffff" d="m1606.348 442.3491c-3.2088623 0 -6.038452 0.6026306 -8.48877 1.8079529c-2.4501953 1.2052917 -4.350586 2.8855286 -5.7008057 5.0407104c-1.3503418 2.1551514 -2.0255127 4.7294006 -2.0255127 7.722687c0 3.5759888 0.9786377 6.4335938 2.935791 8.572815c1.9571533 2.1312256 4.8702393 3.8833008 8.739136 5.2562256c1.8205566 0.6385803 3.5463867 1.2412109 5.177368 1.8079529c1.6309814 0.55874634 3.0761719 1.2092896 4.335449 1.9516296c1.2592773 0.7343445 2.2492676 1.6283569 2.9698486 2.6819763c0.7207031 1.0536499 1.0810547 2.3906555 1.0810547 4.011017c0 1.4208374 -0.3375244 2.6580505 -1.0126953 3.7117004c-0.6751709 1.0536499 -1.6309814 1.8638306 -2.8675537 2.4305725c-1.2364502 0.55874634 -2.6929932 0.83810425 -4.369507 0.83810425c-1.9571533 0 -3.6223145 -0.39111328 -4.9953613 -1.1733704c-1.3730469 -0.7822571 -2.4465332 -1.8478699 -3.220337 -3.1968384c-0.7661133 -1.3489685 -1.149292 -2.8815308 -1.149292 -4.5977173l-8.886963 0c0.053100586 3.38443 0.8458252 6.3019104 2.3781738 8.752411c1.5400391 2.4505005 3.6831055 4.3382874 6.429199 5.66333c2.753662 1.3250122 5.9018555 1.9875488 9.44458 1.9875488c3.777832 0 6.922241 -0.6984558 9.433228 -2.0953064c2.5185547 -1.3968811 4.430176 -3.2367554 5.7349854 -5.5196533c1.3048096 -2.282898 1.9571533 -4.749359 1.9571533 -7.399414c0 -3.0411987 -0.58410645 -5.5156555 -1.7523193 -7.423401c-1.1606445 -1.9157104 -2.730957 -3.4721985 -4.7109375 -4.669525c-1.9799805 -1.2052917 -4.183716 -2.2230225 -6.611206 -3.0531616c-1.7675781 -0.6385803 -3.3985596 -1.2252502 -4.8929443 -1.7600708c-1.4868164 -0.54278564 -2.791626 -1.1214905 -3.9144287 -1.7361145c-1.1151123 -0.614624 -1.9647217 -1.3729248 -2.5488281 -2.2749023c-0.58410645 -0.9099426 -0.8762207 -2.0513916 -0.8762207 -3.4243164c0 -1.4208374 0.31481934 -2.6101685 0.944458 -3.5680237c0.6296387 -0.9578552 1.4906006 -1.6921997 2.5830078 -2.203064c1.0070801 -0.4749756 2.1380615 -0.7124939 3.3930664 -0.7124939c0.11584473 0 0.23266602 0.0020446777 0.350708 0.006072998c1.6309814 0 3.0153809 0.3552246 4.1533203 1.0656128c1.1453857 0.7104187 2.0216064 1.6203918 2.62854 2.729889c0.6068115 1.101532 0.93310547 2.2868958 0.9785156 3.5560303l8.955322 0c-0.053100586 -3.0411682 -0.7889404 -5.6513367 -2.2075195 -7.8304443c-1.4185791 -2.1791382 -3.3530273 -3.8833008 -5.8033447 -5.112549c-2.442627 -1.229248 -5.298706 -1.8438721 -8.568359 -1.8438721z" fill-rule="evenodd"/><path fill="#ffffff" d="m1648.0858 442.3491c-3.2088623 0 -6.038452 0.6026306 -8.488647 1.8079529c-2.4503174 1.2052917 -4.350586 2.8855286 -5.7009277 5.0407104c-1.3503418 2.1551514 -2.0253906 4.7294006 -2.0253906 7.722687c0 3.5759888 0.9785156 6.4335938 2.935669 8.572815c1.9572754 2.1312256 4.8702393 3.8833008 8.739136 5.2562256c1.8206787 0.6385803 3.5463867 1.2412109 5.17749 1.8079529c1.6309814 0.55874634 3.0760498 1.2092896 4.335327 1.9516296c1.2592773 0.7343445 2.2492676 1.6283569 2.9699707 2.6819763c0.7207031 1.0536499 1.0809326 2.3906555 1.0809326 4.011017c0 1.4208374 -0.3375244 2.6580505 -1.0126953 3.7117004c-0.6751709 1.0536499 -1.6309814 1.8638306 -2.8675537 2.4305725c-1.2364502 0.55874634 -2.6929932 0.83810425 -4.369507 0.83810425c-1.9571533 0 -3.6223145 -0.39111328 -4.9953613 -1.1733704c-1.3730469 -0.7822571 -2.4465332 -1.8478699 -3.2202148 -3.1968384c-0.76623535 -1.3489685 -1.149292 -2.8815308 -1.149292 -4.5977173l-8.887085 0c0.053100586 3.38443 0.8458252 6.3019104 2.378296 8.752411c1.539917 2.4505005 3.6829834 4.3382874 6.429077 5.66333c2.7537842 1.3250122 5.9019775 1.9875488 9.44458 1.9875488c3.777832 0 6.922241 -0.6984558 9.433228 -2.0953064c2.5185547 -1.3968811 4.430176 -3.2367554 5.7349854 -5.5196533c1.3048096 -2.282898 1.9571533 -4.749359 1.9571533 -7.399414c0 -3.0411987 -0.58410645 -5.5156555 -1.7523193 -7.423401c-1.1606445 -1.9157104 -2.730957 -3.4721985 -4.7109375 -4.669525c-1.9798584 -1.2052917 -4.1835938 -2.2230225 -6.611206 -3.0531616c-1.767456 -0.6385803 -3.3984375 -1.2252502 -4.8929443 -1.7600708c-1.4868164 -0.54278564 -2.791626 -1.1214905 -3.9143066 -1.7361145c-1.1152344 -0.614624 -1.9648438 -1.3729248 -2.5489502 -2.2749023c-0.58410645 -0.9099426 -0.8762207 -2.0513916 -0.8762207 -3.4243164c0 -1.4208374 0.31481934 -2.6101685 0.944458 -3.5680237c0.6296387 -0.9578552 1.4907227 -1.6921997 2.58313 -2.203064c1.006958 -0.4749756 2.1379395 -0.7124939 3.3929443 -0.7124939c0.11584473 0 0.23278809 0.0020446777 0.350708 0.006072998c1.6309814 0 3.0153809 0.3552246 4.1533203 1.0656128c1.1455078 0.7104187 2.0216064 1.6203918 2.62854 2.729889c0.6069336 1.101532 0.93310547 2.2868958 0.9786377 3.5560303l8.9552 0c-0.053100586 -3.0411682 -0.7889404 -5.6513367 -2.2075195 -7.8304443c-1.4185791 -2.1791382 -3.3530273 -3.8833008 -5.8032227 -5.112549c-2.442749 -1.229248 -5.298828 -1.8438721 -8.568481 -1.8438721z" fill-rule="evenodd"/><path fill="#ffffff" d="m1699.4746 460.45255c-1.7220459 0 -3.28479 0.43103027 -4.6881104 1.2930908c-1.395874 0.85409546 -2.503418 2.0194702 -3.322754 3.4961853c-0.8116455 1.4687195 -1.2175293 3.132965 -1.2175293 4.992798c0 1.8119507 0.4058838 3.4562683 1.2175293 4.932953c0.81933594 1.4687195 1.9382324 2.6341248 3.3568115 3.4961853c1.4262695 0.85409546 2.977539 1.2811279 4.6540527 1.2811279c1.7296143 0 3.303711 -0.42703247 4.72229 -1.2811279c1.4185791 -0.86206055 2.5336914 -2.0274658 3.345459 -3.4961853c0.81921387 -1.4766846 1.2288818 -3.1210022 1.2288818 -4.932953c0 -1.8598328 -0.40966797 -3.5240784 -1.2288818 -4.992798c-0.8117676 -1.4766846 -1.9268799 -2.6420898 -3.345459 -3.4961853c-1.4185791 -0.86206055 -2.9926758 -1.2930908 -4.72229 -1.2930908z" fill-rule="evenodd"/><path fill="#ffffff" d="m1734.7804 443.2351l0 51.496674l30.19983 0l0 -6.9205017l-21.802124 0l0 -44.57617z" fill-rule="evenodd"/><path fill="#ffffff" d="m1773.1624 443.2351l0 51.496674l8.397705 0l0 -51.496674z" fill-rule="evenodd"/><path fill="#ffffff" d="m1787.6317 443.2351l17.96753 51.496674l10.206909 0l18.04712 -51.496674l-8.886963 0l-14.257935 42.444946l-14.053101 -42.444946z" fill-rule="evenodd"/><path fill="#ffffff" d="m1839.9988 443.2351l0 51.496674l8.397705 0l0 -51.496674z" fill-rule="evenodd"/><path fill="#ffffff" d="m1858.246 443.2351l0 51.496674l8.397705 0l0 -37.1528l23.554565 37.1528l8.386353 0l0 -51.496674l-8.386353 0l0 37.22464l-23.554565 -37.22464z" fill-rule="evenodd"/><path fill="#ffffff" d="m1931.0989 442.3491c-5.0371094 0 -9.383911 1.141449 -13.040405 3.4243164c-3.656372 2.282898 -6.463257 5.447815 -8.42041 9.494751c-1.9571533 4.046936 -2.935791 8.692535 -2.935791 13.936768c0 5.3001404 0.95202637 9.925781 2.856079 13.876923c1.9117432 3.9431763 4.6047363 7.020294 8.079102 9.231354c3.4743652 2.203064 7.5177 3.304596 12.130005 3.304596c2.5185547 0 4.72229 -0.307312 6.611206 -0.92193604c1.888916 -0.614624 3.531372 -1.5205994 4.927124 -2.717926c1.395874 -1.2052917 2.6324463 -2.6420898 3.7095947 -4.3103333l0.6940918 7.0641785l7.6922607 0l0 -28.172913l-21.119507 0l0 6.692993l12.653442 0c-0.41723633 4.318329 -1.7902832 7.826477 -4.1191406 10.524445c-2.3288574 2.689972 -5.7767334 4.034973 -10.343506 4.034973c-3.079956 0 -5.7615967 -0.7223816 -8.044922 -2.1671448c-2.2834473 -1.4447632 -4.043457 -3.5640259 -5.279907 -6.357788c-1.2365723 -2.7937317 -1.8547363 -6.130249 -1.8547363 -10.0095825c0 -3.8713074 0.61816406 -7.2158203 1.8547363 -10.033508c1.2365723 -2.8256836 3.0306396 -4.984833 5.382324 -6.4775085c2.3591309 -1.5006409 5.192505 -2.250946 8.500122 -2.250946c3.261963 0 5.916992 0.714386 7.96521 2.1431885c2.0482178 1.4208374 3.425171 3.4043884 4.130615 5.9506836l9.433228 0c-1.1152344 -5.100586 -3.550293 -9.083649 -7.305298 -11.949249c-3.755127 -2.8735657 -8.473633 -4.3103333 -14.155518 -4.3103333z" fill-rule="evenodd"/><path fill="#ffffff" d="m1997.3737 450.37112c2.753662 0 4.828491 0.6505432 6.224243 1.9516296c1.395874 1.3010864 2.09375 3.0770874 2.09375 5.328064c0 2.3068237 -0.697876 4.110779 -2.09375 5.411865c-1.395752 1.3010864 -3.447754 1.9516296 -6.156006 1.9516296l-9.569702 0l0 -14.643188zm0.5576172 21.336212c2.753662 0 4.923218 0.7223816 6.508789 2.1671448c1.5854492 1.4447632 2.3781738 3.3963928 2.3781738 5.854889c0 2.4505005 -0.77001953 4.362213 -2.3099365 5.7351685c-1.539917 1.3729248 -3.6829834 2.0593872 -6.429199 2.0593872l-10.206909 0l0 -15.816589zm-18.456787 -28.472229l0 51.496674l19.856323 0c3.4516602 0 6.364624 -0.59866333 8.739136 -1.79599c2.3743896 -1.2052917 4.1799316 -2.8735657 5.416382 -5.0047913c1.2365723 -2.1391907 1.8547363 -4.5578003 1.8547363 -7.2557373c0 -2.2988586 -0.51208496 -4.390167 -1.5361328 -6.2739563c-1.0241699 -1.8917542 -2.4123535 -3.424347 -4.164673 -4.5977173c-1.1983643 -0.81134033 -2.5021973 -1.3553772 -3.9117432 -1.6320801l0 0c0.9187012 -0.27844238 1.8015137 -0.64437866 2.6486816 -1.0978088c1.7523193 -0.9338989 3.16333 -2.2828674 4.23291 -4.046936c1.0772705 -1.7640381 1.6158447 -3.9471436 1.6158447 -6.5493164c0 -2.6021729 -0.58410645 -4.893036 -1.7523193 -6.8726196c-1.1607666 -1.9875488 -2.8979492 -3.5440674 -5.21167 -4.669525c-2.3061523 -1.1334839 -5.1812744 -1.7001953 -8.625244 -1.7001953z" fill-rule="evenodd"/><path fill="#ffffff" d="m2023.3796 443.2351l0 51.496674l31.59961 0l0 -7.136017l-23.201904 0l0 -15.445435l21.108154 0l0 -6.99234l-21.108154 0l0 -14.786865l23.201904 0l0 -7.136017z" fill-rule="evenodd"/><path fill="#ffffff" d="m2063.789 443.2351l0 51.496674l8.397705 0l0 -37.1528l23.554688 37.1528l8.38623 0l0 -51.496674l-8.38623 0l0 37.22464l-23.554688 -37.22464z" fill-rule="evenodd"/><path fill="#ffffff" d="m2113.9863 443.2351l0 51.496674l31.59961 0l0 -7.136017l-23.201904 0l0 -15.445435l21.108154 0l0 -6.99234l-21.108154 0l0 -14.786865l23.201904 0l0 -7.136017z" fill-rule="evenodd"/><path fill="#ffffff" d="m2154.396 443.2351l0 51.496674l8.397705 0l0 -22.294067l18.661377 0l0 -6.980377l-18.661377 0l0 -15.086212l22.860352 0l0 -7.136017z" fill-rule="evenodd"/><path fill="#ffffff" d="m2192.848 443.2351l0 51.496674l8.397705 0l0 -51.496674z" fill-rule="evenodd"/><path fill="#ffffff" d="m2208.0908 443.2351l0 7.136017l14.406006 0l0 44.360657l8.317871 0l0 -44.360657l14.394531 0l0 -7.136017z" fill-rule="evenodd"/><path fill="#ffffff" d="m2267.092 442.3491c-3.2087402 0 -6.03833 0.6026306 -8.488525 1.8079529c-2.4504395 1.2052917 -4.35083 2.8855286 -5.7009277 5.0407104c-1.3503418 2.1551514 -2.0256348 4.7294006 -2.0256348 7.722687c0 3.5759888 0.97875977 6.4335938 2.935791 8.572815c1.9572754 2.1312256 4.8703613 3.8833008 8.739258 5.2562256c1.8205566 0.6385803 3.5463867 1.2412109 5.177246 1.8079529c1.6311035 0.55874634 3.0761719 1.2092896 4.335449 1.9516296c1.2592773 0.7343445 2.2492676 1.6283569 2.9699707 2.6819763c0.7207031 1.0536499 1.0810547 2.3906555 1.0810547 4.011017c0 1.4208374 -0.33764648 2.6580505 -1.0126953 3.7117004c-0.67529297 1.0536499 -1.6311035 1.8638306 -2.8676758 2.4305725c-1.2363281 0.55874634 -2.692871 0.83810425 -4.369385 0.83810425c-1.9572754 0 -3.6223145 -0.39111328 -4.9953613 -1.1733704c-1.3730469 -0.7822571 -2.4465332 -1.8478699 -3.220459 -3.1968384c-0.7661133 -1.3489685 -1.1491699 -2.8815308 -1.1491699 -4.5977173l-8.886963 0c0.052978516 3.38443 0.8457031 6.3019104 2.3781738 8.752411c1.5400391 2.4505005 3.6831055 4.3382874 6.429199 5.66333c2.753662 1.3250122 5.9018555 1.9875488 9.44458 1.9875488c3.777832 0 6.922119 -0.6984558 9.433105 -2.0953064c2.5185547 -1.3968811 4.430176 -3.2367554 5.7351074 -5.5196533c1.3046875 -2.282898 1.9570312 -4.749359 1.9570312 -7.399414c0 -3.0411987 -0.5839844 -5.5156555 -1.7521973 -7.423401c-1.1606445 -1.9157104 -2.730957 -3.4721985 -4.7109375 -4.669525c-1.9799805 -1.2052917 -4.1835938 -2.2230225 -6.611328 -3.0531616c-1.7675781 -0.6385803 -3.3984375 -1.2252502 -4.8928223 -1.7600708c-1.4868164 -0.54278564 -2.791748 -1.1214905 -3.9145508 -1.7361145c-1.1149902 -0.614624 -1.9645996 -1.3729248 -2.5488281 -2.2749023c-0.5842285 -0.9099426 -0.8762207 -2.0513916 -0.8762207 -3.4243164c0 -1.4208374 0.3149414 -2.6101685 0.9445801 -3.5680237c0.6296387 -0.9578552 1.4907227 -1.6921997 2.5830078 -2.203064c1.0070801 -0.4749756 2.1379395 -0.7124939 3.3930664 -0.7124939c0.115722656 0 0.23266602 0.0020446777 0.35058594 0.006072998c1.6311035 0 3.0153809 0.3552246 4.1533203 1.0656128c1.1455078 0.7104187 2.0217285 1.6203918 2.628662 2.729889c0.6069336 1.101532 0.93310547 2.2868958 0.9785156 3.5560303l8.955322 0c-0.053222656 -3.0411682 -0.78881836 -5.6513367 -2.2075195 -7.8304443c-1.4187012 -2.1791382 -3.3530273 -3.8833008 -5.8032227 -5.112549c-2.442871 -1.229248 -5.298828 -1.8438721 -8.5686035 -1.8438721z" fill-rule="evenodd"/></g></svg>