<svg version="1.1" viewBox="0.0 0.0 2161.2913385826773 596.7742782152231" fill="none" stroke="none" stroke-linecap="square" stroke-miterlimit="10" xmlns:xlink="http://www.w3.org/1999/xlink" xmlns="http://www.w3.org/2000/svg"><clipPath id="p.0"><path d="m0 0l2161.2913 0l0 596.7743l-2161.2913 0l0 -596.7743z" clip-rule="nonzero"/></clipPath><g clip-path="url(#p.0)"><path fill="#000000" fill-opacity="0.0" d="m0 0l2161.2913 0l0 596.7743l-2161.2913 0z" fill-rule="evenodd"/><path fill="#025da7" d="m33.386627 344.39197l0 0c-14.497099 -147.52353 197.02962 -289.05423 472.45813 -316.11768l0 0c275.4285 -27.063433 510.4597 70.58877 524.9568 218.11229l0 0c14.49707 147.52353 -197.0296 289.0542 -472.45813 316.11768l0 0c-275.4285 27.063416 -510.45966 -70.588776 -524.9568 -218.1123z" fill-rule="evenodd"/><path fill="#ffffff" d="m80.72545 355.12683l0 0c-14.235298 -144.90555 192.83458 -283.84967 462.50354 -310.34042l0 0c269.66895 -26.49075 499.81885 69.5034 514.0541 214.40895l0 0c14.235352 144.90555 -192.8346 283.8497 -462.50354 310.34042l0 0c-269.6689 26.490784 -499.8188 -69.50339 -514.0541 -214.40894z" fill-rule="evenodd"/><path fill="#025da7" d="m152.92485 400.70996l150.10707 113.165344l19.596893 0l150.10706 -113.165344z" fill-rule="evenodd"/><path fill="#000000" d="m311.70233 443.54248l1.3125 0l2.109375 2.546875l-2.1875 0l-1.234375 -2.546875z" fill-rule="nonzero"/><path fill="#025da7" d="m308.61237 400.83078l1845.5435 0l0 113.0394l-1845.5435 0z" fill-rule="evenodd"/><path fill="#000000" d="m366.89743 199.41019l24.642365 76.944885l-49.2847 0l24.642334 -76.944885zm-15.429321 -35.88536l-59.74106 179.46852l29.186462 0l13.550598 -42.31134l64.86664 0l13.550598 42.31134l29.680542 0l-59.779114 -179.46852z" fill-rule="evenodd"/><path fill="#000000" d="m464.04208 158.3924l0 184.60095l28.008392 0l0 -184.60095z" fill-rule="evenodd"/><path fill="#000000" d="m584.76227 237.63226c6.53656 0 12.3637085 1.7108154 17.481506 5.1324463c5.1430664 3.4216156 9.146057 8.206345 12.008972 14.354126c2.8882446 6.1477966 4.3323975 13.241425 4.3323975 21.280853c0 8.206329 -1.4441528 15.341675 -4.3323975 21.406036c-2.862854 6.0643616 -6.8658447 10.84906 -12.008972 14.3541565c-5.117798 3.505066 -10.944946 5.257599 -17.481506 5.257599c-6.713867 0 -12.60437 -1.752533 -17.671509 -5.257599c-5.041748 -3.5050964 -9.006775 -8.289795 -11.89502 -14.3541565c-2.862915 -6.0643616 -4.2943726 -13.199707 -4.2943726 -21.406036c0 -8.039429 1.4314575 -15.133026 4.2943726 -21.280853c2.8882446 -6.1477814 6.8532715 -10.93251 11.89502 -14.354126c5.0671387 -3.4216309 10.957642 -5.1324463 17.671509 -5.1324463zm-61.413208 -79.23987l0 184.60095l24.968079 0l3.0402832 -17.942688c2.4829102 4.089264 5.586487 7.719513 9.310791 10.890778c3.7496338 3.1712646 8.1073 5.6470947 13.07312 7.4274597c4.991089 1.8081665 10.602905 2.7122498 16.83545 2.7122498c11.046265 0 20.81311 -2.9069824 29.300476 -8.720978c8.487366 -5.8139954 15.137939 -13.839508 19.95166 -24.076569c4.8391113 -10.264893 7.258667 -21.809387 7.258667 -34.633545c0 -13.157959 -2.4575806 -24.813736 -7.3726807 -34.967346c-4.8897095 -10.181427 -11.578308 -18.220871 -20.065674 -24.118301c-8.487366 -5.8974304 -18.254211 -8.846161 -29.300476 -8.846161c-9.5008545 0 -17.443481 2.1002655 -23.828064 6.3007965c-6.3845215 4.172714 -11.438965 9.416443 -15.163269 15.73114l0 -74.35779z" fill-rule="evenodd"/><path fill="#000000" d="m729.2894 235.838c8.082031 0 14.846619 2.6983643 20.293701 8.095062c5.4471436 5.3688965 8.322693 12.754623 8.62677 22.15712l-59.93744 0c0.6378784 -4.9432373 1.8560791 -9.255035 3.654602 -12.93541c2.8122559 -5.73053 6.625244 -10.042328 11.438965 -12.935425c4.8391113 -2.9208984 10.146912 -4.3813477 15.923401 -4.3813477zm0.22802734 -25.119751c-11.831665 0 -22.231934 2.9069977 -31.200684 8.720978c-8.94342 5.7861633 -15.872681 13.811691 -20.78778 24.076569c-4.8897705 10.264877 -7.3345947 22.22667 -7.3345947 35.88536c0 13.157959 2.4828491 24.78592 7.4486084 34.88391c4.991089 10.07016 11.920349 17.887054 20.78778 23.450653c8.892761 5.563629 19.178955 8.345428 30.858643 8.345428c9.171387 0 17.41809 -1.8359985 24.740112 -5.5079956c7.3219604 -3.6719666 13.46582 -8.707062 18.431519 -15.105225c4.991089 -6.4259644 8.57605 -13.658691 10.754944 -21.69812l-28.502441 0c-2.0267944 5.1185303 -5.1810913 9.22171 -9.462769 12.309509c-4.2564087 3.0599976 -9.665527 4.5899963 -16.227417 4.5899963c-5.903137 0 -11.236267 -1.4882507 -15.999329 -4.464813c-4.737793 -3.004364 -8.474731 -7.3996277 -11.210999 -13.185791c-2.2988281 -4.9303284 -3.6229858 -10.660858 -3.972412 -17.19159l88.18762 0c0.3040161 -2.2254333 0.45599365 -4.3535156 0.45599365 -6.384247c0 -2.0585327 0 -3.9501648 0 -5.6748962c0 -11.794861 -2.3435059 -22.435303 -7.0305786 -31.921265c-4.661743 -9.485977 -11.274292 -17.03859 -19.837708 -22.657852c-8.5633545 -5.647064 -18.596191 -8.470612 -30.09851 -8.470612z" fill-rule="evenodd"/><path fill="#000000" d="m884.08594 210.71825c-6.840576 0 -13.111145 1.1127319 -18.811584 3.3381805c-5.675171 2.1976318 -10.615601 5.313263 -14.821289 9.346878c-4.2056885 4.0057983 -7.7019653 8.832245 -10.488892 14.479324l-2.5842285 -24.118301l-24.968079 0l0 129.22902l28.008362 0l0 -61.797943c0 -7.3439636 0.84869385 -13.450043 2.5462036 -18.318207c1.7227783 -4.868164 4.10437 -8.707077 7.1445923 -11.516693c3.0402832 -2.8374481 6.6505737 -4.895981 10.830933 -6.1756287c4.2056885 -1.2796326 8.6521 -1.9194489 13.339172 -1.9194489l9.80481 0l0 -32.54718z" fill-rule="evenodd"/><path fill="#000000" d="m920.27136 179.67325l-3.2682495 34.09108l-20.065735 0l0 25.912567l20.065735 0l0 60.003647c0 10.765625 1.6340942 19.305756 4.902405 25.620483c3.2682495 6.314728 7.815979 10.84906 13.643127 13.603058c5.852539 2.7261658 12.743774 4.089264 20.673767 4.089264l20.103699 0l0 -26.162933l-14.479187 0c-6.0805664 0 -10.412903 -1.237915 -12.997131 -3.7137146c-2.558899 -2.47583 -3.8383179 -6.9545593 -3.8383179 -13.436157l0 -60.003647l31.998718 0l0 -25.912567l-31.998718 0l0 -34.09108z" fill-rule="evenodd"/><path fill="#000000" d="m1061.2922 163.52483l0 179.46852l28.046387 0l0 -179.46852z" fill-rule="evenodd"/><path fill="#000000" d="m1187.3711 210.71825c-9.171509 0 -17.10144 2.2254486 -23.79004 6.676346c-6.6885986 4.4230804 -11.831665 10.403961 -15.429321 17.942673l-2.09021 -21.572937l-24.740112 0l0 129.22902l28.008423 0l0 -68.975006c0 -7.844696 1.279419 -14.548859 3.838379 -20.112488c2.5842285 -5.563614 6.0931396 -9.791962 10.526855 -12.685059c4.433716 -2.9208984 9.450073 -4.3813477 15.049316 -4.3813477c8.5633545 0 15.023926 2.9069977 19.381592 8.720978c4.357666 5.81398 6.536621 14.10379 6.536621 24.869385l0 72.56354l28.0083 0l0 -75.35925c0 -12.490326 -1.8240967 -22.92212 -5.472412 -31.29538c-3.6483154 -8.373245 -8.829468 -14.729675 -15.543335 -19.069305c-6.6885986 -4.367447 -14.783203 -6.5511627 -24.284058 -6.5511627z" fill-rule="evenodd"/><path fill="#000000" d="m1306.2443 210.71825c-9.652832 0 -17.950195 1.7525482 -24.89209 5.2576294c-6.916626 3.5050812 -12.211792 8.248062 -15.885376 14.228958c-3.6483154 5.9808807 -5.472534 12.726776 -5.472534 20.23767c0 6.1477966 1.2034912 11.363678 3.6103516 15.647675c2.432251 4.2561646 5.7004395 7.761261 9.80481 10.515259c4.1296387 2.7261658 8.804077 4.993347 14.023193 6.8015137c5.219116 1.780365 10.628296 3.2686157 16.227417 4.464813c5.295044 1.196167 9.842773 2.434082 13.643188 3.7137146c3.8255615 1.2796326 6.751831 3.0321655 8.778687 5.2576294c2.0268555 2.2254333 3.0402832 5.382782 3.0402832 9.472046c0 2.7539978 -0.7093506 5.327179 -2.1281738 7.7195435c-1.3934326 2.3923645 -3.5722656 4.311798 -6.536621 5.7583313c-2.9388428 1.4465332 -6.751831 2.1698303 -11.438965 2.1698303c-4.8137207 0 -8.96875 -0.8484802 -12.464966 -2.5453796c-3.496338 -1.7247009 -6.2579346 -4.075348 -8.28479 -7.05188c-2.0268555 -3.004364 -3.4329834 -6.300812 -4.218384 -9.889343l-28.0083 0c0.76000977 8.540161 3.3569336 16.10669 7.7906494 22.699585c4.4589844 6.5928955 10.539551 11.725342 18.241577 15.397308c7.7019043 3.671997 16.772095 5.5079956 27.210327 5.5079956c9.956787 0 18.507568 -1.752533 25.6521 -5.2576294c7.169922 -3.505066 12.731079 -8.4149475 16.683472 -14.729675c3.9776611 -6.3425293 5.890503 -13.616974 5.7385254 -21.823303c0 -9.040894 -1.9509277 -16.03714 -5.852539 -20.98877c-3.8763428 -4.979431 -9.158813 -8.74881 -15.847412 -11.308044c-6.6884766 -2.5592957 -14.390503 -4.784729 -23.105957 -6.676361c-5.4471436 -1.3630981 -10.045532 -2.7679138 -13.795166 -4.214447c-3.7242432 -1.4465332 -6.5618896 -3.1990662 -8.512695 -5.257614c-1.9508057 -2.0585327 -2.9262695 -4.450882 -2.9262695 -7.177063c0 -4.089264 1.5961914 -7.371811 4.788452 -9.84761c3.1922607 -2.5036316 7.8286133 -3.7554474 13.90918 -3.7554474c5.9031982 0 10.640869 1.3352661 14.213135 4.0058136c3.5976562 2.6427155 5.7764893 6.35643 6.536621 11.141144l26.640259 0c-1.3934326 -12.490326 -6.181885 -22.184937 -14.365234 -29.083832c-8.18335 -6.926712 -19.1156 -10.39006 -32.796753 -10.39006z" fill-rule="evenodd"/><path fill="#000000" d="m1382.8325 213.76433l0 75.65135c0 12.462494 1.7861328 22.936005 5.3585205 31.420532c3.5722656 8.456696 8.740723 14.785309 15.505249 18.98587c6.789917 4.172699 14.935303 6.2590637 24.436157 6.2590637c9.019409 0 16.911377 -2.2254639 23.676025 -6.6763306c6.7645264 -4.450897 11.945679 -10.431793 15.543213 -17.942688l2.09021 21.53122l24.740112 0l0 -129.22902l-28.008423 0l0 68.97499c0 8.039429 -1.2919922 14.840942 -3.8762207 20.404572c-2.55896 5.535797 -6.055298 9.76416 -10.488892 12.685059c-4.433716 2.893097 -9.450195 4.33963 -15.049316 4.33963c-8.715454 0 -15.213989 -2.8513489 -19.495728 -8.554077c-4.281616 -5.73053 -6.4224854 -14.159424 -6.4224854 -25.286652l0 -72.56352z" fill-rule="evenodd"/><path fill="#000000" d="m1597.1698 210.71825c-6.840576 0 -13.111084 1.1127319 -18.811523 3.3381805c-5.675171 2.1976318 -10.615601 5.313263 -14.821289 9.346878c-4.2056885 4.0057983 -7.7020264 8.832245 -10.488892 14.479324l-2.5842285 -24.118301l-24.96814 0l0 129.22902l28.008423 0l0 -61.797943c0 -7.3439636 0.8486328 -13.450043 2.5461426 -18.318207c1.7227783 -4.868164 4.10437 -8.707077 7.1446533 -11.516693c3.0402832 -2.8374481 6.6505127 -4.895981 10.830933 -6.1756287c4.2056885 -1.2796326 8.6521 -1.9194489 13.339111 -1.9194489l9.80481 0l0 -32.54718z" fill-rule="evenodd"/><path fill="#000000" d="m1693.5903 286.57822l0 0.54244995c-0.4560547 4.5899963 -1.3934326 8.9435425 -2.8122559 13.060608c-1.3934326 4.089264 -3.3822021 7.8029785 -5.9664307 11.141144c-2.55896 3.3381653 -5.586548 5.9113464 -9.082886 7.7195435c-3.4962158 1.7803345 -7.4992676 2.6705322 -12.008911 2.6705322c-4.053711 0 -7.562744 -0.6815491 -10.526978 -2.0446472c-2.9388428 -1.3630676 -5.1937256 -3.3242493 -6.7645264 -5.8835144c-1.5455322 -2.5870972 -2.3182373 -5.6748962 -2.3182373 -9.263428c0 -3.5885315 0.7727051 -6.7041626 2.3182373 -9.346893c1.5708008 -2.6427307 4.142334 -4.7290955 7.7145996 -6.2590637c3.5723877 -1.5578308 8.082031 -2.336731 13.529175 -2.336731zm-23.562012 -75.85997c-9.196777 0 -17.646118 1.8359985 -25.348145 5.5079803c-7.7020264 3.671997 -13.896484 8.804428 -18.583618 15.397324c-4.661743 6.5650787 -7.4613037 14.465408 -8.398682 23.701035l27.552368 0c1.0894775 -6.509445 3.889038 -11.335892 8.398682 -14.479324c4.535034 -3.1712646 9.994873 -4.756897 16.379395 -4.756897c5.599121 0 10.184937 1.1127167 13.757202 3.3381653c3.5722656 2.2254486 6.2198486 5.6053467 7.942627 10.139709c1.7227783 4.506531 2.5842285 10.181412 2.5842285 17.024673l-29.680542 0c-10.894287 0 -20.07837 1.6690979 -27.552246 5.007263c-7.473999 3.3381653 -13.123901 7.9976807 -16.949463 13.978607c-3.800415 5.980896 -5.7005615 13.074493 -5.7005615 21.280823c0 7.0101624 1.5582275 13.505707 4.6744385 19.486603c3.116211 5.980896 7.866699 10.7655945 14.251221 14.354126c6.3845215 3.588562 14.403198 5.3828125 24.05603 5.3828125c4.9658203 0 9.4375 -0.5980835 13.415161 -1.7942505c3.9776611 -1.1961975 7.524658 -2.865265 10.640869 -5.007263c3.116333 -2.1419983 5.8779297 -4.659546 8.284668 -7.5526123c2.4068604 -2.920929 4.3830566 -6.0921936 5.928589 -9.513794l2.8122559 20.78012l23.828003 0l0 -79.99097c0 -10.932526 -2.0648193 -20.279404 -6.19458 -28.04065c-4.1296387 -7.7890778 -10.083496 -13.769974 -17.86145 -17.942688c-7.778076 -4.200531 -17.190186 -6.3007965 -28.23645 -6.3007965z" fill-rule="evenodd"/><path fill="#000000" d="m1818.2659 210.71825c-9.171387 0 -17.10144 2.2254486 -23.79004 6.676346c-6.6884766 4.4230804 -11.831665 10.403961 -15.429321 17.942673l-2.090088 -21.572937l-24.740112 0l0 129.22902l28.0083 0l0 -68.975006c0 -7.844696 1.279541 -14.548859 3.838379 -20.112488c2.5842285 -5.563614 6.0931396 -9.791962 10.526855 -12.685059c4.433716 -2.9208984 9.450195 -4.3813477 15.049316 -4.3813477c8.5633545 0 15.023926 2.9069977 19.381592 8.720978c4.357788 5.81398 6.536621 14.10379 6.536621 24.869385l0 72.56354l28.008423 0l0 -75.35925c0 -12.490326 -1.8242188 -22.92212 -5.472534 -31.29538c-3.6483154 -8.373245 -8.829468 -14.729675 -15.543335 -19.069305c-6.6885986 -4.367447 -14.783203 -6.5511627 -24.284058 -6.5511627z" fill-rule="evenodd"/><path fill="#000000" d="m1949.2621 210.71825c-11.679565 0 -22.06726 2.9069977 -31.162598 8.720978c-9.095459 5.7861633 -16.176758 13.7699585 -21.243774 23.951385c-5.0671387 10.181427 -7.600708 22.018051 -7.600708 35.50981c0 12.991058 2.5335693 24.577301 7.600708 34.758728c5.0671387 10.1536255 12.1484375 18.095703 21.243774 23.826202c9.095459 5.73053 19.406982 8.595795 30.934692 8.595795c14.795898 0 27.172241 -4.311798 37.12915 -12.935425c9.956787 -8.651428 16.341309 -20.154205 19.153564 -34.50836l-29.414429 0c-1.0894775 4.450897 -2.9262695 8.303711 -5.510498 11.558441c-2.55896 3.2268982 -5.675171 5.66098 -9.348877 7.302246c-3.6481934 1.6134338 -7.727295 2.420166 -12.236938 2.420166c-4.357666 0 -8.411377 -0.9319153 -12.161133 -2.7957153c-3.7242432 -1.8916321 -7.0305176 -4.5899963 -9.918823 -8.095062c-2.862915 -3.5050964 -5.079834 -7.8168945 -6.6505127 -12.935425c-1.5454102 -5.1463623 -2.3182373 -11.043793 -2.3182373 -17.692322c0 -8.734894 1.3554688 -16.176208 4.0664062 -22.324036c2.736206 -6.1477814 6.4731445 -10.835129 11.2109375 -14.062042c4.7630615 -3.254715 10.020264 -4.88208 15.771362 -4.88208c6.6884766 0 12.477661 1.8777313 17.367432 5.6331787c4.915161 3.7554321 8.158081 8.873978 9.728882 15.355591l29.414429 0c-2.8122559 -14.687958 -9.196777 -26.260284 -19.153564 -34.716995c-9.956909 -8.456711 -22.257202 -12.685059 -36.901245 -12.685059z" fill-rule="evenodd"/><path fill="#000000" d="m2087.511 235.838c8.082031 0 14.84668 2.6983643 20.293945 8.095062c5.4470215 5.3688965 8.32251 12.754623 8.626709 22.15712l-59.9375 0c0.6376953 -4.9432373 1.855957 -9.255035 3.654541 -12.93541c2.8122559 -5.73053 6.625244 -10.042328 11.438965 -12.935425c4.8391113 -2.9208984 10.146973 -4.3813477 15.92334 -4.3813477zm0.22802734 -25.119751c-11.831543 0 -22.23169 2.9069977 -31.200684 8.720978c-8.943359 5.7861633 -15.872559 13.811691 -20.787598 24.076569c-4.8897705 10.264877 -7.334717 22.22667 -7.334717 35.88536c0 13.157959 2.4829102 24.78592 7.4487305 34.88391c4.991089 10.07016 11.920288 17.887054 20.787598 23.450653c8.892822 5.563629 19.178955 8.345428 30.858643 8.345428c9.171631 0 17.418213 -1.8359985 24.740234 -5.5079956c7.3217773 -3.6719666 13.46582 -8.707062 18.43164 -15.105225c4.990967 -6.4259644 8.575928 -13.658691 10.754883 -21.69812l-28.502441 0c-2.0268555 5.1185303 -5.1811523 9.22171 -9.462891 12.309509c-4.2563477 3.0599976 -9.665527 4.5899963 -16.227295 4.5899963c-5.9033203 0 -11.236328 -1.4882507 -15.999512 -4.464813c-4.737549 -3.004364 -8.474609 -7.3996277 -11.2109375 -13.185791c-2.2988281 -4.9303284 -3.6230469 -10.660858 -3.972412 -17.19159l88.187744 0c0.30395508 -2.2254333 0.4560547 -4.3535156 0.4560547 -6.384247c0 -2.0585327 0 -3.9501648 0 -5.6748962c0 -11.794861 -2.3435059 -22.435303 -7.0307617 -31.921265c-4.661621 -9.485977 -11.27417 -17.03859 -19.837646 -22.657852c-8.563477 -5.647064 -18.596191 -8.470612 -30.098633 -8.470612z" fill-rule="evenodd"/><path fill="#ffffff" d="m343.09933 429.21692l0 56.16098l29.486053 0l0 -7.5473022l-21.286865 0l0 -48.613678z" fill-rule="evenodd"/><path fill="#ffffff" d="m380.5741 429.21692l0 56.16098l8.199219 0l0 -56.16098z" fill-rule="evenodd"/><path fill="#ffffff" d="m398.39 429.21692l0 56.16098l8.199219 0l0 -24.313354l18.220459 0l0 -7.61261l-18.220459 0l0 -16.452637l22.320068 0l0 -7.782379z" fill-rule="evenodd"/><path fill="#ffffff" d="m435.933 429.21692l0 56.16098l30.8526 0l0 -7.7823486l-22.653381 0l0 -16.84439l20.60913 0l0 -7.6256714l-20.60913 0l0 -16.12619l22.653381 0l0 -7.782379z" fill-rule="evenodd"/><path fill="#ffffff" d="m500.0976 447.99384c-1.6813354 0 -3.2071533 0.47006226 -4.5773315 1.4102173c-1.362793 0.9314575 -2.4442139 2.2023926 -3.2441406 3.8128357c-0.7925415 1.6017456 -1.1887817 3.4167786 -1.1887817 5.445038c0 1.9760742 0.39624023 3.7693176 1.1887817 5.3797607c0.79992676 1.6017456 1.892456 2.8726807 3.2774658 3.8128357c1.3924866 0.9314575 2.907196 1.3971863 4.5440063 1.3971863c1.6887207 0 3.225647 -0.46572876 4.6106873 -1.3971863c1.3850403 -0.940155 2.4738464 -2.21109 3.266327 -3.8128357c0.79992676 -1.6104431 1.1998901 -3.4036865 1.1998901 -5.3797607c0 -2.0282593 -0.39996338 -3.8432922 -1.1998901 -5.445038c-0.79248047 -1.6104431 -1.8812866 -2.8813782 -3.266327 -3.8128357c-1.3850403 -0.940155 -2.9219666 -1.4102173 -4.6106873 -1.4102173z" fill-rule="evenodd"/><path fill="#ffffff" d="m549.58966 437.3257c4.14032 0 7.403015 0.81829834 9.787903 2.4548645c2.392395 1.6278381 4.0996094 3.9259949 5.121765 6.8944397c1.029541 2.9684448 1.5442505 6.5375366 1.5442505 10.707275c0 4.117523 -0.5147095 7.660492 -1.5442505 10.628937c-1.0221558 2.9684448 -2.72937 5.2404785 -5.121765 6.816101c-2.3849487 1.5756226 -5.647644 2.3634338 -9.787903 2.3634338l-6.821594 0l0 -39.86505zm-15.020813 -8.108795l0 56.16098l15.431885 0c5.5475464 0 10.128601 -1.1490784 13.743103 -3.4472046c3.6218872 -2.2981567 6.3068237 -5.545166 8.054749 -9.741028c1.7554321 -4.2045593 2.6331177 -9.14035 2.6331177 -14.807373c0 -5.780182 -0.87768555 -10.768219 -2.6331177 -14.964081c-1.7479248 -4.195862 -4.4328613 -7.442871 -8.054749 -9.740997c-3.614441 -2.3068542 -8.195496 -3.4602966 -13.743103 -3.4602966z" fill-rule="evenodd"/><path fill="#ffffff" d="m582.4192 429.21692l0 56.16098l8.199158 0l0 -56.16098z" fill-rule="evenodd"/><path fill="#ffffff" d="m615.52246 428.25064c-3.1330566 0 -5.895752 0.6572571 -8.288086 1.9717102c-2.392395 1.3144836 -4.2477417 3.1469116 -5.566162 5.497284c-1.3184204 2.3503723 -1.9776001 5.157776 -1.9776001 8.42218c0 3.8999023 0.9555054 7.016327 2.866394 9.349304c1.9109497 2.3242493 4.755127 4.235016 8.532532 5.7323c1.7775879 0.69641113 3.4626465 1.3536377 5.0550537 1.9717102c1.5924683 0.6093445 3.003418 1.3188171 4.232971 2.1283875c1.2294922 0.8008728 2.196045 1.7758484 2.8997192 2.9249268c0.7036133 1.1490784 1.0554199 2.6071777 1.0554199 4.374298c0 1.54953 -0.32958984 2.8988037 -0.98876953 4.047882c-0.6591797 1.1490784 -1.5924683 2.0326538 -2.7997437 2.6506958c-1.2073364 0.609375 -2.6293945 0.9140625 -4.2662354 0.9140625c-1.9109497 0 -3.5366821 -0.4265747 -4.8773193 -1.2796631c-1.3406372 -0.8530884 -2.3886719 -2.0152283 -3.144165 -3.4863892c-0.7480469 -1.4711609 -1.1221313 -3.1425476 -1.1221313 -5.01416l-8.676941 0c0.051879883 3.690979 0.82592773 6.8726807 2.3220215 9.545166c1.50354 2.6724548 3.5959473 4.7312317 6.2771606 6.1762695c2.6886597 1.4450378 5.762451 2.167572 9.2213745 2.167572c3.6885376 0 6.758545 -0.76168823 9.210205 -2.2850952c2.4589844 -1.5233765 4.3255005 -3.5299072 5.5994873 -6.019562c1.2739258 -2.489685 1.9108887 -5.1795654 1.9108887 -8.069641c0 -3.3166504 -0.5703125 -6.0152283 -1.7109375 -8.095764c-1.1332397 -2.089203 -2.6663818 -3.7867126 -4.5995483 -5.0924683c-1.9331665 -1.3144836 -4.084839 -2.4243774 -6.454956 -3.329712c-1.725708 -0.69641113 -3.3181763 -1.3362427 -4.7772827 -1.9194641c-1.4517212 -0.59194946 -2.725708 -1.2230835 -3.8218994 -1.8933716c-1.0887451 -0.6702881 -1.918335 -1.4972839 -2.4886475 -2.480957c-0.5703125 -0.9923706 -0.85546875 -2.2372131 -0.85546875 -3.734497c0 -1.5494995 0.30743408 -2.8465576 0.92211914 -3.8911743c0.6147461 -1.0446167 1.4554443 -1.8454895 2.5220337 -2.4026184c0.9831543 -0.5180054 2.0874634 -0.77700806 3.3127441 -0.77700806c0.113098145 0 0.22723389 0.0021972656 0.34240723 0.0066223145c1.5924683 0 2.9442139 0.38735962 4.055176 1.1621399c1.1184692 0.77474976 1.973938 1.7671204 2.5664062 2.9771423c0.5925293 1.201294 0.9110718 2.493988 0.9555054 3.8781128l8.743591 0c-0.051879883 -3.3166504 -0.7703247 -6.163208 -2.1553345 -8.539703c-1.3850708 -2.3764954 -3.2738037 -4.2350464 -5.6661377 -5.5756226c-2.3849487 -1.3405762 -5.173584 -2.0108948 -8.365845 -2.0108948z" fill-rule="evenodd"/><path fill="#ffffff" d="m659.829 440.4465l7.2040405 24.078339l-14.408142 0l7.2041016 -24.078339zm-4.510681 -11.229584l-17.465027 56.16098l8.532532 0l3.9614868 -13.240448l18.963318 0l3.9614868 13.240448l8.676941 0l-17.476074 -56.16098z" fill-rule="evenodd"/><path fill="#ffffff" d="m705.9714 436.9993c2.6886597 0 4.7143555 0.70944214 6.0772095 2.1283875c1.362854 1.4189453 2.0442505 3.3558044 2.0442505 5.810669c0 2.5157776 -0.6813965 4.483124 -2.0442505 5.9020386c-1.362854 1.4189453 -3.366333 2.128418 -6.010559 2.128418l-9.343506 0l0 -15.969513zm0.5444336 23.268738c2.6885986 0 4.806946 0.7878113 6.3549194 2.3634338c1.5479736 1.5756226 2.3220215 3.70401 2.3220215 6.385193c0 2.6724548 -0.75183105 4.757324 -2.255371 6.254608c-1.50354 1.4972839 -3.5958862 2.2459412 -6.2771606 2.2459412l-9.965698 0l0 -17.249176zm-18.020508 -31.051117l0 56.16098l19.387024 0c3.3700562 0 6.2141724 -0.65286255 8.532532 -1.9586487c2.3182983 -1.3144531 4.0811157 -3.1338196 5.28833 -5.4580994c1.2073364 -2.3329468 1.8109741 -4.9706116 1.8109741 -7.9129333c0 -2.50708 -0.49993896 -4.7878113 -1.4998779 -6.842224c-0.9998779 -2.0631104 -2.3552856 -3.7344666 -4.066284 -5.0141296c-1.1699829 -0.8848572 -2.4429932 -1.4781494 -3.8192139 -1.7799377l0 0c0.89697266 -0.3036499 1.7589111 -0.7027283 2.5859985 -1.1972046c1.7109985 -1.0184937 3.088623 -2.4896545 4.1329346 -4.4134827c1.0518188 -1.9238281 1.5776367 -4.3046875 1.5776367 -7.1425476c0 -2.83786 -0.5703125 -5.336212 -1.7109375 -7.4950867c-1.1332397 -2.167572 -2.8293457 -3.8650818 -5.088379 -5.092499c-2.251648 -1.2361145 -5.058838 -1.854187 -8.421448 -1.854187z" fill-rule="evenodd"/><path fill="#ffffff" d="m731.3626 429.21692l0 56.16098l8.199219 0l0 -56.16098z" fill-rule="evenodd"/><path fill="#ffffff" d="m749.17847 429.21692l0 56.16098l29.486084 0l0 -7.5473022l-21.286865 0l0 -48.613678z" fill-rule="evenodd"/><path fill="#ffffff" d="m786.65326 429.21692l0 56.16098l8.199219 0l0 -56.16098z" fill-rule="evenodd"/><path fill="#ffffff" d="m801.5361 429.21692l0 7.782379l14.065308 0l0 48.3786l8.12146 0l0 -48.3786l14.054199 0l0 -7.782379z" fill-rule="evenodd"/><path fill="#ffffff" d="m840.7826 429.21692l15.909607 35.947723l0 20.213257l8.18811 0l0 -20.213257l15.976257 -35.947723l-9.2213745 0l-10.777161 26.382355l-10.787415 -26.382355z" fill-rule="evenodd"/><path fill="#ffffff" d="m911.43274 447.99384c-1.6812744 0 -3.2070923 0.47006226 -4.5773315 1.4102173c-1.362793 0.9314575 -2.4442139 2.2023926 -3.2440796 3.8128357c-0.7925415 1.6017456 -1.1887817 3.4167786 -1.1887817 5.445038c0 1.9760742 0.39624023 3.7693176 1.1887817 5.3797607c0.7998657 1.6017456 1.892395 2.8726807 3.2774048 3.8128357c1.3925171 0.9314575 2.9071655 1.3971863 4.5440063 1.3971863c1.6887817 0 3.225647 -0.46572876 4.610718 -1.3971863c1.3850098 -0.940155 2.473816 -2.21109 3.2663574 -3.8128357c0.79992676 -1.6104431 1.1998901 -3.4036865 1.1998901 -5.3797607c0 -2.0282593 -0.39996338 -3.8432922 -1.1998901 -5.445038c-0.7925415 -1.6104431 -1.8813477 -2.8813782 -3.2663574 -3.8128357c-1.3850708 -0.940155 -2.921936 -1.4102173 -4.610718 -1.4102173z" fill-rule="evenodd"/><path fill="#ffffff" d="m967.1353 428.25064c-4.732849 0 -8.817688 1.231781 -12.254395 3.695343c-3.4367065 2.4635315 -6.0771484 5.875946 -7.9214478 10.237183c-1.836853 4.3525696 -2.75531 9.418945 -2.75531 15.199127c0 5.7192383 0.91845703 10.7595215 2.75531 15.120758c1.8442993 4.361267 4.484741 7.76062 7.9214478 10.198029c3.4367065 2.4287415 7.5215454 3.643097 12.254395 3.643097c5.6883545 0 10.339722 -1.6191406 13.954224 -4.8574524c3.6218872 -3.2383118 5.8883057 -7.6909485 6.7993164 -13.357971l-9.010254 0c-0.6369629 2.9945374 -1.9368286 5.336212 -3.8995972 7.024994c-1.9553833 1.6800842 -4.592163 2.5201416 -7.9103394 2.5201416c-3.007141 0 -5.592041 -0.8139343 -7.754822 -2.4417725c-2.1553345 -1.6365662 -3.8144531 -3.9651794 -4.977295 -6.98584c-1.1628418 -3.020691 -1.7442627 -6.6419983 -1.7442627 -10.863983c0 -4.2306824 0.5814209 -7.882477 1.7442627 -10.955383c1.1628418 -3.0729065 2.8219604 -5.423279 4.977295 -7.051117c2.1627197 -1.6365662 4.7476807 -2.4548645 7.754822 -2.4548645c3.3181763 0 5.954956 0.9096985 7.9103394 2.729065c1.9627686 1.8193665 3.2626343 4.304657 3.8995972 7.4559326l9.010254 0c-0.95544434 -5.9891357 -3.2329712 -10.628937 -6.8326416 -13.919464c-3.5922852 -3.2905273 -8.232544 -4.9358215 -13.920898 -4.9358215z" fill-rule="evenodd"/><path fill="#ffffff" d="m1012.4577 437.24738c3.0960083 0 5.347595 0.84439087 6.754883 2.5332031c1.4146729 1.6800842 2.1220093 3.9085693 2.1220093 6.6855164c0 2.83786 -0.7184448 5.127289 -2.1553345 6.8683167c-1.4294434 1.7323303 -3.669983 2.5984802 -6.7215576 2.5984802l-8.388062 0l0 -18.685516zm-16.58728 -8.030457l0 56.16098l8.199219 0l0 -22.30246l7.692505 0l9.028076 22.30246l9.354675 0l-9.980957 -23.510803l0 0c0.80792236 -0.31167603 1.5610962 -0.6836548 2.2594604 -1.1159363c2.503479 -1.5494995 4.3477173 -3.6082764 5.532776 -6.1762695c1.1850586 -2.5679932 1.7775879 -5.3492737 1.7775879 -8.343842c0 -3.2121887 -0.6036377 -6.089203 -1.8109131 -8.6311035c-1.2072754 -2.5419006 -3.0515137 -4.574524 -5.532776 -6.097931c-2.4812622 -1.523407 -5.6105957 -2.2850952 -9.3880005 -2.2850952z" fill-rule="evenodd"/><path fill="#ffffff" d="m1038.1917 429.21692l0 56.16098l8.199219 0l0 -56.16098z" fill-rule="evenodd"/><path fill="#ffffff" d="m1053.0745 429.21692l0 7.782379l14.065308 0l0 48.3786l8.12146 0l0 -48.3786l14.054199 0l0 -7.782379z" fill-rule="evenodd"/><path fill="#ffffff" d="m1096.0762 429.21692l0 56.16098l8.199219 0l0 -56.16098z" fill-rule="evenodd"/><path fill="#ffffff" d="m1135.1234 428.25064c-4.73291 0 -8.817749 1.231781 -12.254395 3.695343c-3.4367676 2.4635315 -6.0771484 5.875946 -7.921509 10.237183c-1.836792 4.3525696 -2.755249 9.418945 -2.755249 15.199127c0 5.7192383 0.91845703 10.7595215 2.755249 15.120758c1.8443604 4.361267 4.484741 7.76062 7.921509 10.198029c3.4366455 2.4287415 7.5214844 3.643097 12.254395 3.643097c5.6883545 0 10.339722 -1.6191406 13.954224 -4.8574524c3.6218262 -3.2383118 5.8883057 -7.6909485 6.7993164 -13.357971l-9.010254 0c-0.6369629 2.9945374 -1.9368896 5.336212 -3.8996582 7.024994c-1.9553223 1.6800842 -4.592163 2.5201416 -7.9102783 2.5201416c-3.0072021 0 -5.592163 -0.8139343 -7.754883 -2.4417725c-2.1552734 -1.6365662 -3.8144531 -3.9651794 -4.977295 -6.98584c-1.1628418 -3.020691 -1.7442627 -6.6419983 -1.7442627 -10.863983c0 -4.2306824 0.5814209 -7.882477 1.7442627 -10.955383c1.1628418 -3.0729065 2.8220215 -5.423279 4.977295 -7.051117c2.1628418 -1.6365662 4.7476807 -2.4548645 7.754883 -2.4548645c3.3181152 0 5.954956 0.9096985 7.9102783 2.729065c1.9627686 1.8193665 3.2626953 4.304657 3.8996582 7.4559326l9.010254 0c-0.95544434 -5.9891357 -3.2330322 -10.628937 -6.8326416 -13.919464c-3.5922852 -3.2905273 -8.232544 -4.9358215 -13.920898 -4.9358215z" fill-rule="evenodd"/><path fill="#ffffff" d="m1182.0186 440.4465l7.2039795 24.078339l-14.408081 0l7.2041016 -24.078339zm-4.510742 -11.229584l-17.464966 56.16098l8.532471 0l3.9615479 -13.240448l18.963379 0l3.9614258 13.240448l8.677002 0l-17.476196 -56.16098z" fill-rule="evenodd"/><path fill="#ffffff" d="m1210.6848 429.21692l0 56.16098l29.486084 0l0 -7.5473022l-21.286865 0l0 -48.613678z" fill-rule="evenodd"/><path fill="#ffffff" d="m1264.8151 429.21692l0 56.16098l8.199219 0l0 -56.16098z" fill-rule="evenodd"/><path fill="#ffffff" d="m1282.631 429.21692l0 56.16098l29.486084 0l0 -7.5473022l-21.286865 0l0 -48.613678z" fill-rule="evenodd"/><path fill="#ffffff" d="m1320.1058 429.21692l0 56.16098l29.485962 0l0 -7.5473022l-21.286865 0l0 -48.613678z" fill-rule="evenodd"/><path fill="#ffffff" d="m1357.5806 429.21692l0 56.16098l8.199219 0l0 -40.517914l22.997803 40.517914l8.18811 0l0 -56.16098l-8.18811 0l0 40.596252l-22.997803 -40.596252z" fill-rule="evenodd"/><path fill="#ffffff" d="m1406.5913 429.21692l0 56.16098l30.85254 0l0 -7.7823486l-22.65332 0l0 -16.84439l20.60913 0l0 -7.6256714l-20.60913 0l0 -16.12619l22.65332 0l0 -7.782379z" fill-rule="evenodd"/><path fill="#ffffff" d="m1461.333 428.25064c-3.1330566 0 -5.895752 0.6572571 -8.288086 1.9717102c-2.392334 1.3144836 -4.2478027 3.1469116 -5.566162 5.497284c-1.3183594 2.3503723 -1.9775391 5.157776 -1.9775391 8.42218c0 3.8999023 0.95544434 7.016327 2.866333 9.349304c1.9110107 2.3242493 4.755127 4.235016 8.532593 5.7323c1.7775879 0.69641113 3.4625244 1.3536377 5.0550537 1.9717102c1.5924072 0.6093445 3.003418 1.3188171 4.23291 2.1283875c1.2294922 0.8008728 2.196045 1.7758484 2.8996582 2.9249268c0.70373535 1.1490784 1.055542 2.6071777 1.055542 4.374298c0 1.54953 -0.32958984 2.8988037 -0.9888916 4.047882c-0.6591797 1.1490784 -1.5924072 2.0326538 -2.7996826 2.6506958c-1.2072754 0.609375 -2.6293945 0.9140625 -4.2662354 0.9140625c-1.9108887 0 -3.5367432 -0.4265747 -4.8773193 -1.2796631c-1.3405762 -0.8530884 -2.3886719 -2.0152283 -3.144165 -3.4863892c-0.7480469 -1.4711609 -1.1220703 -3.1425476 -1.1220703 -5.01416l-8.677002 0c0.051879883 3.690979 0.82592773 6.8726807 2.3220215 9.545166c1.50354 2.6724548 3.5959473 4.7312317 6.2772217 6.1762695c2.6885986 1.4450378 5.762329 2.167572 9.221313 2.167572c3.6884766 0 6.758545 -0.76168823 9.210205 -2.2850952c2.4589844 -1.5233765 4.3255615 -3.5299072 5.5994873 -6.019562c1.2739258 -2.489685 1.9108887 -5.1795654 1.9108887 -8.069641c0 -3.3166504 -0.5703125 -6.0152283 -1.7109375 -8.095764c-1.1331787 -2.089203 -2.6663818 -3.7867126 -4.5994873 -5.0924683c-1.9332275 -1.3144836 -4.084839 -2.4243774 -6.454956 -3.329712c-1.7258301 -0.69641113 -3.3182373 -1.3362427 -4.7773438 -1.9194641c-1.4516602 -0.59194946 -2.725708 -1.2230835 -3.8218994 -1.8933716c-1.0887451 -0.6702881 -1.918335 -1.4972839 -2.4886475 -2.480957c-0.5703125 -0.9923706 -0.85546875 -2.2372131 -0.85546875 -3.734497c0 -1.5494995 0.30737305 -2.8465576 0.92211914 -3.8911743c0.6147461 -1.0446167 1.4554443 -1.8454895 2.5219727 -2.4026184c0.98327637 -0.5180054 2.0875244 -0.77700806 3.3128662 -0.77700806c0.11303711 0 0.22717285 0.0021972656 0.34240723 0.0066223145c1.5924072 0 2.9440918 0.38735962 4.055176 1.1621399c1.1184082 0.77474976 1.973877 1.7671204 2.5664062 2.9771423c0.5925293 1.201294 0.91101074 2.493988 0.95544434 3.8781128l8.743652 0c-0.051879883 -3.3166504 -0.77038574 -6.163208 -2.1553955 -8.539703c-1.3850098 -2.3764954 -3.2738037 -4.2350464 -5.6661377 -5.5756226c-2.3848877 -1.3405762 -5.173584 -2.0108948 -8.365845 -2.0108948z" fill-rule="evenodd"/><path fill="#ffffff" d="m1502.0844 428.25064c-3.1330566 0 -5.895752 0.6572571 -8.288086 1.9717102c-2.392456 1.3144836 -4.2478027 3.1469116 -5.566162 5.497284c-1.3183594 2.3503723 -1.9776611 5.157776 -1.9776611 8.42218c0 3.8999023 0.9555664 7.016327 2.866455 9.349304c1.9108887 2.3242493 4.755127 4.235016 8.532471 5.7323c1.7775879 0.69641113 3.4626465 1.3536377 5.0550537 1.9717102c1.5925293 0.6093445 3.003418 1.3188171 4.23291 2.1283875c1.2296143 0.8008728 2.196167 1.7758484 2.8997803 2.9249268c0.7036133 1.1490784 1.0554199 2.6071777 1.0554199 4.374298c0 1.54953 -0.32958984 2.8988037 -0.98876953 4.047882c-0.6591797 1.1490784 -1.5924072 2.0326538 -2.7996826 2.6506958c-1.2072754 0.609375 -2.6293945 0.9140625 -4.2663574 0.9140625c-1.9108887 0 -3.536621 -0.4265747 -4.8771973 -1.2796631c-1.3406982 -0.8530884 -2.3886719 -2.0152283 -3.144165 -3.4863892c-0.74816895 -1.4711609 -1.1221924 -3.1425476 -1.1221924 -5.01416l-8.67688 0c0.051879883 3.690979 0.82580566 6.8726807 2.3220215 9.545166c1.50354 2.6724548 3.5959473 4.7312317 6.2770996 6.1762695c2.6887207 1.4450378 5.762451 2.167572 9.221313 2.167572c3.6885986 0 6.758667 -0.76168823 9.210327 -2.2850952c2.4589844 -1.5233765 4.3254395 -3.5299072 5.599365 -6.019562c1.2740479 -2.489685 1.9110107 -5.1795654 1.9110107 -8.069641c0 -3.3166504 -0.5703125 -6.0152283 -1.7109375 -8.095764c-1.1333008 -2.089203 -2.666504 -3.7867126 -4.5996094 -5.0924683c-1.9331055 -1.3144836 -4.084717 -2.4243774 -6.454956 -3.329712c-1.725708 -0.69641113 -3.3182373 -1.3362427 -4.7773438 -1.9194641c-1.4516602 -0.59194946 -2.725586 -1.2230835 -3.8217773 -1.8933716c-1.0887451 -0.6702881 -1.918335 -1.4972839 -2.4886475 -2.480957c-0.5703125 -0.9923706 -0.85546875 -2.2372131 -0.85546875 -3.734497c0 -1.5494995 0.30737305 -2.8465576 0.92211914 -3.8911743c0.6147461 -1.0446167 1.4554443 -1.8454895 2.5219727 -2.4026184c0.9831543 -0.5180054 2.0875244 -0.77700806 3.3127441 -0.77700806c0.11315918 0 0.22729492 0.0021972656 0.34240723 0.0066223145c1.5925293 0 2.9442139 0.38735962 4.055176 1.1621399c1.1184082 0.77474976 1.973877 1.7671204 2.5664062 2.9771423c0.59265137 1.201294 0.9111328 2.493988 0.9555664 3.8781128l8.74353 0c-0.051757812 -3.3166504 -0.7702637 -6.163208 -2.1552734 -8.539703c-1.3851318 -2.3764954 -3.2738037 -4.2350464 -5.6661377 -5.5756226c-2.3850098 -1.3405762 -5.173584 -2.0108948 -8.365845 -2.0108948z" fill-rule="evenodd"/><path fill="#ffffff" d="m1552.2584 447.99384c-1.6813965 0 -3.2071533 0.47006226 -4.5773926 1.4102173c-1.362793 0.9314575 -2.4442139 2.2023926 -3.2441406 3.8128357c-0.79248047 1.6017456 -1.1887207 3.4167786 -1.1887207 5.445038c0 1.9760742 0.39624023 3.7693176 1.1887207 5.3797607c0.79992676 1.6017456 1.892456 2.8726807 3.2774658 3.8128357c1.392456 0.9314575 2.9071045 1.3971863 4.5440674 1.3971863c1.6887207 0 3.225586 -0.46572876 4.6105957 -1.3971863c1.3851318 -0.940155 2.473877 -2.21109 3.2663574 -3.8128357c0.79992676 -1.6104431 1.1999512 -3.4036865 1.1999512 -5.3797607c0 -2.0282593 -0.4000244 -3.8432922 -1.1999512 -5.445038c-0.79248047 -1.6104431 -1.8812256 -2.8813782 -3.2663574 -3.8128357c-1.3850098 -0.940155 -2.921875 -1.4102173 -4.6105957 -1.4102173z" fill-rule="evenodd"/><path fill="#ffffff" d="m1586.7296 429.21692l0 56.16098l29.486084 0l0 -7.5473022l-21.286865 0l0 -48.613678z" fill-rule="evenodd"/><path fill="#ffffff" d="m1624.2045 429.21692l0 56.16098l8.199219 0l0 -56.16098z" fill-rule="evenodd"/><path fill="#ffffff" d="m1638.3318 429.21692l17.542725 56.16098l9.965698 0l17.620605 -56.16098l-8.677002 0l-13.920898 46.2894l-13.720825 -46.2894z" fill-rule="evenodd"/><path fill="#ffffff" d="m1689.461 429.21692l0 56.16098l8.199219 0l0 -56.16098z" fill-rule="evenodd"/><path fill="#ffffff" d="m1707.277 429.21692l0 56.16098l8.199219 0l0 -40.517914l22.997803 40.517914l8.18811 0l0 -56.16098l-8.18811 0l0 40.596252l-22.997803 -40.596252z" fill-rule="evenodd"/><path fill="#ffffff" d="m1778.4078 428.25064c-4.918091 0 -9.162109 1.2448425 -12.732056 3.734497c-3.5700684 2.4896545 -6.310547 5.9412537 -8.221436 10.354736c-1.9110107 4.4134827 -2.866455 9.479858 -2.866455 15.199097c0 5.7802124 0.9295654 10.824799 2.7885742 15.13385c1.8665771 4.3003235 4.4959717 7.656128 7.8881836 10.067444c3.392212 2.4026184 7.339966 3.6039124 11.843262 3.6039124c2.4591064 0 4.610718 -0.33514404 6.454956 -1.0054321c1.8442383 -0.6703186 3.447876 -1.6583252 4.810669 -2.9641113c1.362793 -1.3144531 2.5701904 -2.8813782 3.6218262 -4.7007446l0.6777344 7.70401l7.510376 0l0 -30.72467l-20.62024 0l0 7.2992554l12.35437 0c-0.40734863 4.709442 -1.7479248 8.535339 -4.0218506 11.477661c-2.2738037 2.9336243 -5.6401367 4.4004517 -10.098999 4.4004517c-3.00708 0 -5.625366 -0.7878418 -7.8547363 -2.3634644c-2.2294922 -1.5756226 -3.947876 -3.8868103 -5.1551514 -6.9335938c-1.2072754 -3.0467834 -1.8109131 -6.6855164 -1.8109131 -10.916199c0 -4.221985 0.6036377 -7.8694153 1.8109131 -10.942322c1.2073975 -3.081604 2.9591064 -5.4363403 5.255127 -7.064209c2.3034668 -1.6365356 5.069824 -2.454834 8.299194 -2.454834c3.1849365 0 5.7772217 0.77911377 7.7769775 2.3373108c1.9998779 1.54953 3.3441162 3.712738 4.032959 6.4896545l9.210205 0c-1.0887451 -5.562561 -3.4663086 -9.906403 -7.1325684 -13.031525c-3.6663818 -3.13385 -8.273315 -4.700775 -13.820923 -4.700775z" fill-rule="evenodd"/><path fill="#ffffff" d="m1843.1161 436.9993c2.6885986 0 4.7143555 0.70944214 6.0772705 2.1283875c1.362793 1.4189453 2.0441895 3.3558044 2.0441895 5.810669c0 2.5157776 -0.6813965 4.483124 -2.0441895 5.9020386c-1.362915 1.4189453 -3.366455 2.128418 -6.01062 2.128418l-9.343506 0l0 -15.969513zm0.5444336 23.268738c2.6885986 0 4.806885 0.7878113 6.3549805 2.3634338c1.5479736 1.5756226 2.3218994 3.70401 2.3218994 6.385193c0 2.6724548 -0.751709 4.757324 -2.255249 6.254608c-1.50354 1.4972839 -3.5959473 2.2459412 -6.2772217 2.2459412l-9.965698 0l0 -17.249176zm-18.020508 -31.051117l0 56.16098l19.386963 0c3.3701172 0 6.2142334 -0.65286255 8.532593 -1.9586487c2.3182373 -1.3144531 4.0810547 -3.1338196 5.28833 -5.4580994c1.2073975 -2.3329468 1.8109131 -4.9706116 1.8109131 -7.9129333c0 -2.50708 -0.49987793 -4.7878113 -1.4997559 -6.842224c-1.0 -2.0631104 -2.3553467 -3.7344666 -4.066284 -5.0141296c-1.170044 -0.8848572 -2.4431152 -1.4781494 -3.8192139 -1.7799377l0 0c0.8968506 -0.3036499 1.7589111 -0.7027283 2.5859375 -1.1972046c1.7109375 -1.0184937 3.088623 -2.4896545 4.1329346 -4.4134827c1.0517578 -1.9238281 1.5776367 -4.3046875 1.5776367 -7.1425476c0 -2.83786 -0.5703125 -5.336212 -1.7109375 -7.4950867c-1.1331787 -2.167572 -2.8293457 -3.8650818 -5.088379 -5.092499c-2.251709 -1.2361145 -5.058838 -1.854187 -8.421387 -1.854187z" fill-rule="evenodd"/><path fill="#ffffff" d="m1868.5074 429.21692l0 56.16098l30.85254 0l0 -7.7823486l-22.65332 0l0 -16.84439l20.60913 0l0 -7.6256714l-20.60913 0l0 -16.12619l22.65332 0l0 -7.782379z" fill-rule="evenodd"/><path fill="#ffffff" d="m1907.9618 429.21692l0 56.16098l8.199219 0l0 -40.517914l22.997803 40.517914l8.18811 0l0 -56.16098l-8.18811 0l0 40.596252l-22.997803 -40.596252z" fill-rule="evenodd"/><path fill="#ffffff" d="m1956.9725 429.21692l0 56.16098l30.85254 0l0 -7.7823486l-22.65332 0l0 -16.84439l20.60913 0l0 -7.6256714l-20.60913 0l0 -16.12619l22.65332 0l0 -7.782379z" fill-rule="evenodd"/><path fill="#ffffff" d="m1996.4269 429.21692l0 56.16098l8.199219 0l0 -24.313354l18.220459 0l0 -7.61261l-18.220459 0l0 -16.452637l22.320068 0l0 -7.782379z" fill-rule="evenodd"/><path fill="#ffffff" d="m2033.97 429.21692l0 56.16098l8.199219 0l0 -56.16098z" fill-rule="evenodd"/><path fill="#ffffff" d="m2048.8528 429.21692l0 7.782379l14.065186 0l0 48.3786l8.121582 0l0 -48.3786l14.054199 0l0 -7.782379z" fill-rule="evenodd"/><path fill="#ffffff" d="m2106.4595 428.25064c-3.1330566 0 -5.895752 0.6572571 -8.288086 1.9717102c-2.3925781 1.3144836 -4.2478027 3.1469116 -5.566162 5.497284c-1.3183594 2.3503723 -1.9775391 5.157776 -1.9775391 8.42218c0 3.8999023 0.95532227 7.016327 2.866211 9.349304c1.9108887 2.3242493 4.755127 4.235016 8.532471 5.7323c1.777832 0.69641113 3.4626465 1.3536377 5.055176 1.9717102c1.5925293 0.6093445 3.003418 1.3188171 4.23291 2.1283875c1.2294922 0.8008728 2.196045 1.7758484 2.8996582 2.9249268c0.7038574 1.1490784 1.0554199 2.6071777 1.0554199 4.374298c0 1.54953 -0.3293457 2.8988037 -0.98876953 4.047882c-0.6591797 1.1490784 -1.5922852 2.0326538 -2.7995605 2.6506958c-1.2072754 0.609375 -2.6293945 0.9140625 -4.2663574 0.9140625c-1.9108887 0 -3.536621 -0.4265747 -4.8771973 -1.2796631c-1.3405762 -0.8530884 -2.3886719 -2.0152283 -3.144287 -3.4863892c-0.7480469 -1.4711609 -1.1220703 -3.1425476 -1.1220703 -5.01416l-8.677002 0c0.052001953 3.690979 0.82592773 6.8726807 2.3220215 9.545166c1.5036621 2.6724548 3.5959473 4.7312317 6.2770996 6.1762695c2.6887207 1.4450378 5.762451 2.167572 9.221436 2.167572c3.6884766 0 6.758545 -0.76168823 9.210205 -2.2850952c2.4589844 -1.5233765 4.3256836 -3.5299072 5.5996094 -6.019562c1.2739258 -2.489685 1.9108887 -5.1795654 1.9108887 -8.069641c0 -3.3166504 -0.5703125 -6.0152283 -1.7109375 -8.095764c-1.1333008 -2.089203 -2.666504 -3.7867126 -4.5996094 -5.0924683c-1.9331055 -1.3144836 -4.084717 -2.4243774 -6.455078 -3.329712c-1.7255859 -0.69641113 -3.3181152 -1.3362427 -4.7770996 -1.9194641c-1.4519043 -0.59194946 -2.72583 -1.2230835 -3.8220215 -1.8933716c-1.088623 -0.6702881 -1.9182129 -1.4972839 -2.4885254 -2.480957c-0.5703125 -0.9923706 -0.85546875 -2.2372131 -0.85546875 -3.734497c0 -1.5494995 0.30737305 -2.8465576 0.92211914 -3.8911743c0.6147461 -1.0446167 1.4553223 -1.8454895 2.5219727 -2.4026184c0.9831543 -0.5180054 2.0874023 -0.77700806 3.3127441 -0.77700806c0.11303711 0 0.22729492 0.0021972656 0.3425293 0.0066223145c1.5922852 0 2.9440918 0.38735962 4.0549316 1.1621399c1.1184082 0.77474976 1.973877 1.7671204 2.5666504 2.9771423c0.5925293 1.201294 0.9108887 2.493988 0.95532227 3.8781128l8.743652 0c-0.051757812 -3.3166504 -0.7702637 -6.163208 -2.1552734 -8.539703c-1.3850098 -2.3764954 -3.2739258 -4.2350464 -5.66626 -5.5756226c-2.3847656 -1.3405762 -5.173584 -2.0108948 -8.365723 -2.0108948z" fill-rule="evenodd"/></g></svg>